<?xml version="1.0" encoding="utf-8"?>
<svg width="50px" height="50px" viewbox="0 0 50 50" version="1.1" xmlns:xlink="http://www.w3.org/1999/xlink" xmlns="http://www.w3.org/2000/svg">
  <defs>
    <linearGradient x1="0" y1="0" x2="1" y2="1" id="gradient_1">
      <stop offset="0.2974138" stop-color="#90EE90" />
      <stop offset="1" stop-color="#0000FF" />
    </linearGradient>
    <rect width="50" height="50" id="artboard_1" />
    <clipPath id="clip_1">
      <use xlink:href="#artboard_1" clip-rule="evenodd" />
    </clipPath>
  </defs>
  <g id="Icon" clip-path="url(#clip_1)">
    <use xlink:href="#artboard_1" stroke="none" fill="#FFFFFF" fill-opacity="0" />
    <path d="M7.8023 5.73107L5.73107 7.8023Q5.6674 7.86597 5.59337 7.91723Q5.51934 7.96848 5.43734 8.00568Q5.35534 8.04287 5.26801 8.06481Q5.18068 8.08674 5.09083 8.0927Q5.00099 8.09867 4.91152 8.08847Q4.82206 8.07827 4.73586 8.05224Q4.64966 8.02621 4.56951 7.98518Q4.48935 7.94416 4.41783 7.88946L0.906395 5.20425Q0.864114 5.17192 0.825508 5.13527Q0.786902 5.09863 0.752408 5.05809Q0.717914 5.01756 0.687922 4.97358Q0.657931 4.92961 0.632782 4.8827Q0.607633 4.83579 0.587611 4.78647Q0.567589 4.73716 0.552921 4.68599Q0.538252 4.63482 0.529104 4.58239Q0.519956 4.52995 0.516431 4.47685Q0.512905 4.42374 0.515044 4.37055Q0.517182 4.31737 0.524959 4.26471Q0.532737 4.21206 0.546065 4.16053Q0.559394 4.109 0.578122 4.05917Q0.596851 4.00935 0.620767 3.9618Q0.644684 3.91425 0.673518 3.86951Q0.702352 3.82477 0.735776 3.78334Q0.769201 3.74192 0.806838 3.70428L3.70428 0.806838Q3.74192 0.769201 3.78334 0.735776Q3.82477 0.702352 3.86951 0.673518Q3.91425 0.644684 3.9618 0.620767Q4.00935 0.596851 4.05917 0.578122Q4.10899 0.559394 4.16053 0.546065Q4.21206 0.532737 4.26471 0.524959Q4.31737 0.517182 4.37055 0.515044Q4.42374 0.512905 4.47684 0.516431Q4.52995 0.519956 4.58239 0.529104Q4.63482 0.538252 4.68599 0.552921Q4.73716 0.567589 4.78647 0.587611Q4.83579 0.607633 4.8827 0.632782Q4.92961 0.657931 4.97358 0.687922Q5.01756 0.717914 5.05809 0.752408Q5.09863 0.786902 5.13527 0.825508Q5.17192 0.864114 5.20425 0.906395L7.88946 4.41783Q7.94416 4.48935 7.98518 4.56951Q8.02621 4.64966 8.05224 4.73586Q8.07827 4.82206 8.08847 4.91152Q8.09867 5.00099 8.0927 5.09083Q8.08674 5.18068 8.06481 5.26801Q8.04288 5.35534 8.00568 5.43734Q7.96848 5.51934 7.91723 5.59337Q7.86597 5.6674 7.8023 5.73107L7.8023 5.73107Z" transform="translate(17.102695 17.980547)" id="Rectangle" fill="url(#gradient_1)" fill-rule="evenodd" stroke="none" />
    <path d="M1.72527 0L4.65442 0Q4.74447 0 4.83306 0.0161009Q4.92165 0.0322019 5.00594 0.0638847Q5.09022 0.0955676 5.16748 0.141811Q5.24474 0.188055 5.31249 0.247368Q5.38024 0.306682 5.43629 0.377154Q5.49233 0.447625 5.53488 0.526984Q5.57742 0.606342 5.60509 0.692029Q5.63276 0.777715 5.64466 0.866969L6.22889 5.24866Q6.23592 5.30142 6.23731 5.35463Q6.2387 5.40784 6.23442 5.46089Q6.23015 5.51395 6.22026 5.56625Q6.21038 5.61855 6.19499 5.6695Q6.1796 5.72045 6.15889 5.76948Q6.13817 5.81851 6.11237 5.86507Q6.08656 5.91162 6.05595 5.95516Q6.02534 5.99871 5.99028 6.03876Q5.95522 6.0788 5.9161 6.1149Q5.87698 6.15099 5.83425 6.18273Q5.79152 6.21446 5.74565 6.24147Q5.69979 6.26849 5.65132 6.29047Q5.60285 6.31246 5.55231 6.32917Q5.50178 6.34588 5.44975 6.35713Q5.39773 6.36838 5.3448 6.37403Q5.29188 6.37969 5.23865 6.37969L1.14104 6.37969Q1.08781 6.37969 1.03489 6.37403Q0.981964 6.36838 0.929939 6.35713Q0.877914 6.34588 0.827379 6.32917Q0.776844 6.31246 0.728371 6.29047Q0.679898 6.26849 0.634035 6.24147Q0.588173 6.21446 0.54544 6.18273Q0.502708 6.15099 0.463589 6.1149Q0.424471 6.0788 0.389409 6.03876Q0.354347 5.99871 0.323739 5.95516Q0.293132 5.91162 0.267324 5.86507Q0.241517 5.81851 0.220802 5.76948Q0.200087 5.72045 0.184699 5.6695Q0.169311 5.61855 0.159425 5.56625Q0.149538 5.51395 0.145265 5.46089Q0.140992 5.40784 0.142381 5.35463Q0.14377 5.30142 0.150804 5.24866L0.73503 0.866968Q0.74693 0.777715 0.774598 0.692028Q0.802267 0.606342 0.844811 0.526983Q0.887355 0.447625 0.943404 0.377154Q0.999453 0.306682 1.0672 0.247368Q1.13495 0.188055 1.21221 0.141811Q1.28947 0.0955676 1.37375 0.0638847Q1.45804 0.0322019 1.54663 0.0161009Q1.63522 0 1.72527 0Z" transform="matrix(0.99999994 1.040243E-09 -1.040243E-09 0.99999994 10.710348 1.0000021)" id="Rectangle-2" fill="url(#gradient_1)" fill-rule="evenodd" stroke="none" />
    <path d="M4.65442 6.37969L1.72527 6.37969Q1.63522 6.37969 1.54663 6.36359Q1.45804 6.34749 1.37375 6.3158Q1.28947 6.28412 1.21221 6.23788Q1.13495 6.19164 1.0672 6.13232Q0.999453 6.07301 0.943404 6.00254Q0.887355 5.93207 0.84481 5.85271Q0.802266 5.77335 0.774598 5.68766Q0.746929 5.60197 0.735029 5.51272L0.150804 1.13103Q0.143769 1.07827 0.142381 1.02506Q0.140992 0.971855 0.145265 0.9188Q0.149538 0.865745 0.159425 0.813444Q0.169311 0.761144 0.184699 0.71019Q0.200087 0.659236 0.220802 0.610206Q0.241516 0.561176 0.267324 0.514624Q0.293132 0.468073 0.323739 0.424527Q0.354347 0.380981 0.389409 0.340934Q0.424471 0.300887 0.463589 0.264793Q0.502708 0.228698 0.54544 0.196964Q0.588173 0.165231 0.634035 0.138218Q0.679898 0.111204 0.728371 0.0892174Q0.776844 0.0672303 0.827379 0.0505184Q0.877914 0.0338066 0.929939 0.0225591Q0.981963 0.0113115 1.03489 0.00565577Q1.08781 0 1.14104 0L5.23865 0Q5.29187 0 5.3448 0.00565577Q5.39773 0.0113115 5.44975 0.0225591Q5.50177 0.0338066 5.55231 0.0505185Q5.60285 0.0672304 5.65132 0.0892174Q5.69979 0.111204 5.74565 0.138218Q5.79152 0.165231 5.83425 0.196964Q5.87698 0.228698 5.9161 0.264793Q5.95522 0.300887 5.99028 0.340934Q6.02534 0.380981 6.05595 0.424527Q6.08656 0.468073 6.11237 0.514624Q6.13817 0.561176 6.15889 0.610206Q6.1796 0.659236 6.19499 0.71019Q6.21038 0.761144 6.22026 0.813445Q6.23015 0.865745 6.23442 0.9188Q6.2387 0.971855 6.23731 1.02506Q6.23592 1.07827 6.22888 1.13103L5.64466 5.51272Q5.63276 5.60197 5.60509 5.68766Q5.57742 5.77335 5.53488 5.85271Q5.49233 5.93206 5.43628 6.00254Q5.38023 6.07301 5.31249 6.13232Q5.24474 6.19163 5.16748 6.23788Q5.09022 6.28412 5.00593 6.3158Q4.92165 6.34749 4.83306 6.36359Q4.74446 6.37969 4.65442 6.37969Z" transform="translate(10.549002 22.62031)" id="Rectangle-3" fill="url(#gradient_1)" fill-rule="evenodd" stroke="none" />
    <path d="M6.37969 1.72527L6.37969 4.65442Q6.37969 4.74447 6.36359 4.83306Q6.34749 4.92165 6.3158 5.00593Q6.28412 5.09022 6.23788 5.16748Q6.19163 5.24474 6.13232 5.31249Q6.07301 5.38024 6.00254 5.43629Q5.93206 5.49233 5.85271 5.53488Q5.77335 5.57742 5.68766 5.60509Q5.60197 5.63276 5.51272 5.64466L1.13103 6.22889Q1.07827 6.23592 1.02506 6.23731Q0.971855 6.2387 0.9188 6.23443Q0.865745 6.23015 0.813445 6.22027Q0.761144 6.21038 0.71019 6.19499Q0.659236 6.1796 0.610206 6.15889Q0.561176 6.13817 0.514624 6.11237Q0.468073 6.08656 0.424527 6.05595Q0.380981 6.02534 0.340934 5.99028Q0.300887 5.95522 0.264793 5.9161Q0.228698 5.87698 0.196964 5.83425Q0.165231 5.79152 0.138218 5.74566Q0.111204 5.69979 0.0892174 5.65132Q0.0672304 5.60285 0.0505185 5.55231Q0.0338066 5.50178 0.0225591 5.44975Q0.0113115 5.39773 0.00565577 5.3448Q0 5.29188 0 5.23865L0 1.14104Q0 1.08781 0.00565577 1.03489Q0.0113115 0.981964 0.0225591 0.929939Q0.0338066 0.877914 0.0505185 0.827379Q0.0672304 0.776844 0.0892174 0.728371Q0.111204 0.679898 0.138218 0.634035Q0.165231 0.588173 0.196964 0.54544Q0.228698 0.502708 0.264793 0.463589Q0.300887 0.424471 0.340934 0.389409Q0.380981 0.354347 0.424527 0.32374Q0.468073 0.293132 0.514624 0.267324Q0.561176 0.241517 0.610206 0.220802Q0.659236 0.200087 0.71019 0.184699Q0.761144 0.169311 0.813445 0.159425Q0.865745 0.149538 0.9188 0.145265Q0.971855 0.140992 1.02506 0.142381Q1.07827 0.14377 1.13103 0.150804L5.51272 0.73503Q5.60197 0.74693 5.68766 0.774599Q5.77335 0.802267 5.85271 0.844811Q5.93206 0.887356 6.00254 0.943405Q6.07301 0.999454 6.13232 1.0672Q6.19163 1.13495 6.23788 1.21221Q6.28412 1.28947 6.3158 1.37375Q6.34749 1.45804 6.36359 1.54663Q6.37969 1.63522 6.37969 1.72527Z" transform="translate(21.568464 11.600846)" id="Rectangle-4" fill="url(#gradient_1)" fill-rule="evenodd" stroke="none" />
    <path d="M4.49701e-07 4.65442L1.03404e-07 1.72527Q9.27584e-08 1.63522 0.016101 1.54663Q0.0322019 1.45804 0.0638848 1.37375Q0.0955677 1.28947 0.141811 1.21221Q0.188055 1.13495 0.247368 1.0672Q0.306682 0.999454 0.377154 0.943405Q0.447625 0.887355 0.526984 0.844811Q0.606342 0.802267 0.692029 0.774598Q0.777715 0.74693 0.866969 0.73503L5.24866 0.150804Q5.30142 0.14377 5.35463 0.142381Q5.40783 0.140992 5.46089 0.145265Q5.51394 0.149538 5.56624 0.159425Q5.61855 0.169311 5.6695 0.184699Q5.72045 0.200087 5.76948 0.220802Q5.81851 0.241517 5.86507 0.267324Q5.91162 0.293132 5.95516 0.32374Q5.99871 0.354347 6.03875 0.389409Q6.0788 0.424471 6.1149 0.463589Q6.15099 0.502708 6.18272 0.54544Q6.21446 0.588173 6.24147 0.634035Q6.26848 0.679898 6.29047 0.728371Q6.31246 0.776844 6.32917 0.827379Q6.34588 0.877914 6.35713 0.929939Q6.36838 0.981963 6.37403 1.03489Q6.37969 1.08781 6.37969 1.14104L6.37969 5.23865Q6.37969 5.29187 6.37403 5.3448Q6.36838 5.39773 6.35713 5.44975Q6.34588 5.50177 6.32917 5.55231Q6.31246 5.60285 6.29047 5.65132Q6.26849 5.69979 6.24147 5.74565Q6.21446 5.79152 6.18273 5.83425Q6.15099 5.87698 6.1149 5.9161Q6.0788 5.95522 6.03876 5.99028Q5.99871 6.02534 5.95516 6.05595Q5.91162 6.08656 5.86507 6.11237Q5.81851 6.13817 5.76948 6.15889Q5.72045 6.1796 5.6695 6.19499Q5.61855 6.21038 5.56625 6.22026Q5.51395 6.23015 5.46089 6.23442Q5.40784 6.2387 5.35463 6.23731Q5.30142 6.23592 5.24866 6.22888L0.866969 5.64466Q0.777716 5.63276 0.692029 5.60509Q0.606342 5.57742 0.526984 5.53488Q0.447626 5.49233 0.377154 5.43628Q0.306682 5.38024 0.247369 5.31249Q0.188055 5.24474 0.141812 5.16748Q0.0955681 5.09022 0.0638852 5.00593Q0.0322023 4.92165 0.0161014 4.83306Q4.60346e-07 4.74447 4.49701e-07 4.65442Z" transform="translate(0.10950637 11.600846)" id="Rectangle-5" fill="url(#gradient_1)" fill-rule="evenodd" stroke="none" />
    <path d="M2.68969 7.80229L0.618465 5.73107Q0.554795 5.6674 0.503536 5.59337Q0.452277 5.51934 0.415082 5.43734Q0.377886 5.35534 0.355954 5.268Q0.334021 5.18067 0.328058 5.09083Q0.322094 5.00098 0.332293 4.91152Q0.342491 4.82206 0.368522 4.73586Q0.394554 4.64966 0.435579 4.56951Q0.476604 4.48935 0.531301 4.41782L3.21651 0.906394Q3.24885 0.864113 3.28549 0.825507Q3.32213 0.786901 3.36267 0.752407Q3.40321 0.717913 3.44718 0.687922Q3.49115 0.657931 3.53806 0.632782Q3.58497 0.607633 3.63429 0.587611Q3.68361 0.567589 3.73477 0.552921Q3.78594 0.538252 3.83837 0.529104Q3.89081 0.519955 3.94392 0.51643Q3.99703 0.512905 4.05021 0.515043Q4.10339 0.517182 4.15605 0.524959Q4.2087 0.532736 4.26023 0.546065Q4.31177 0.559393 4.36159 0.578122Q4.41141 0.59685 4.45896 0.620767Q4.50651 0.644684 4.55125 0.673517Q4.59599 0.702351 4.63742 0.735776Q4.67884 0.7692 4.71648 0.806837L7.61392 3.70428Q7.65156 3.74192 7.68499 3.78334Q7.71841 3.82477 7.74724 3.86951Q7.77608 3.91425 7.79999 3.9618Q7.82391 4.00935 7.84264 4.05917Q7.86137 4.10899 7.8747 4.16053Q7.88802 4.21206 7.8958 4.26471Q7.90358 4.31737 7.90572 4.37055Q7.90786 4.42373 7.90433 4.47684Q7.9008 4.52995 7.89166 4.58239Q7.88251 4.63482 7.86784 4.68599Q7.85317 4.73715 7.83315 4.78647Q7.81313 4.83579 7.78798 4.8827Q7.76283 4.92961 7.73284 4.97358Q7.70285 5.01756 7.66835 5.05809Q7.63386 5.09863 7.59525 5.13527Q7.55665 5.17191 7.51437 5.20425L4.00293 7.88946Q3.93141 7.94416 3.85125 7.98518Q3.7711 8.02621 3.6849 8.05224Q3.5987 8.07827 3.50924 8.08847Q3.41978 8.09867 3.32993 8.0927Q3.24009 8.08674 3.15275 8.06481Q3.06542 8.04287 2.98342 8.00568Q2.90142 7.96848 2.82739 7.91722Q2.75336 7.86596 2.68969 7.80229Z" transform="translate(2.6375542 17.8192)" id="Rectangle-6" fill="url(#gradient_1)" fill-rule="evenodd" stroke="none" />
    <path d="M5.73107 0.618464L7.8023 2.68969Q7.86597 2.75336 7.91723 2.82739Q7.96848 2.90142 8.00568 2.98342Q8.04288 3.06542 8.06481 3.15275Q8.08674 3.24009 8.0927 3.32993Q8.09867 3.41978 8.08847 3.50924Q8.07827 3.5987 8.05224 3.6849Q8.02621 3.7711 7.98518 3.85125Q7.94416 3.93141 7.88946 4.00293L5.20425 7.51437Q5.17192 7.55665 5.13527 7.59525Q5.09863 7.63386 5.05809 7.66835Q5.01756 7.70285 4.97358 7.73284Q4.92961 7.76283 4.8827 7.78798Q4.83579 7.81313 4.78647 7.83315Q4.73716 7.85317 4.68599 7.86784Q4.63482 7.88251 4.58239 7.89166Q4.52995 7.90081 4.47684 7.90433Q4.42374 7.90786 4.37055 7.90572Q4.31737 7.90358 4.26471 7.8958Q4.21206 7.88803 4.16053 7.8747Q4.10899 7.86137 4.05917 7.84264Q4.00935 7.82391 3.9618 7.8Q3.91425 7.77608 3.86951 7.74724Q3.82477 7.71841 3.78334 7.68499Q3.74192 7.65156 3.70428 7.61392L0.806838 4.71648Q0.769201 4.67884 0.735776 4.63742Q0.702352 4.59599 0.673518 4.55125Q0.644684 4.50651 0.620767 4.45896Q0.596851 4.41141 0.578122 4.36159Q0.559394 4.31177 0.546065 4.26024Q0.532737 4.2087 0.524959 4.15605Q0.517182 4.10339 0.515044 4.05021Q0.512905 3.99703 0.516431 3.94392Q0.519956 3.89081 0.529104 3.83837Q0.538252 3.78594 0.552921 3.73477Q0.567589 3.68361 0.587611 3.63429Q0.607633 3.58497 0.632782 3.53806Q0.657931 3.49115 0.687922 3.44718Q0.717914 3.40321 0.752408 3.36267Q0.786902 3.32213 0.825508 3.28549Q0.864114 3.24885 0.906395 3.21651L4.41783 0.531301Q4.48935 0.476604 4.56951 0.435579Q4.64966 0.394554 4.73586 0.368522Q4.82206 0.342491 4.91152 0.332292Q5.00098 0.322094 5.09083 0.328057Q5.18068 0.334021 5.26801 0.355953Q5.35534 0.377886 5.43734 0.415081Q5.51934 0.452277 5.59337 0.503536Q5.6674 0.554794 5.73107 0.618464L5.73107 0.618464Z" transform="translate(17.276688 3.180068)" id="Rectangle-7" fill="url(#gradient_1)" fill-rule="evenodd" stroke="none" />
    <path d="M0.618464 2.68969L2.68969 0.618465Q2.75336 0.554795 2.82739 0.503536Q2.90142 0.452277 2.98342 0.415082Q3.06542 0.377886 3.15275 0.355954Q3.24008 0.334021 3.32993 0.328057Q3.41978 0.322094 3.50924 0.332292Q3.5987 0.342491 3.6849 0.368522Q3.7711 0.394554 3.85125 0.435579Q3.93141 0.476604 4.00293 0.531301L7.51436 3.21651Q7.55665 3.24884 7.59525 3.28549Q7.63386 3.32213 7.66835 3.36267Q7.70285 3.4032 7.73284 3.44718Q7.76283 3.49115 7.78798 3.53806Q7.81313 3.58497 7.83315 3.63429Q7.85317 3.6836 7.86784 3.73477Q7.88251 3.78594 7.89165 3.83837Q7.9008 3.8908 7.90433 3.94391Q7.90785 3.99702 7.90571 4.05021Q7.90358 4.10339 7.8958 4.15605Q7.88802 4.2087 7.87469 4.26023Q7.86137 4.31176 7.84264 4.36159Q7.82391 4.41141 7.79999 4.45896Q7.77608 4.50651 7.74724 4.55125Q7.71841 4.59599 7.68498 4.63742Q7.65156 4.67884 7.61392 4.71648L4.71648 7.61392Q4.67884 7.65156 4.63742 7.68498Q4.59599 7.71841 4.55125 7.74724Q4.50651 7.77607 4.45896 7.79999Q4.41141 7.82391 4.36159 7.84264Q4.31177 7.86136 4.26023 7.87469Q4.2087 7.88802 4.15605 7.8958Q4.10339 7.90358 4.05021 7.90571Q3.99703 7.90785 3.94392 7.90433Q3.89081 7.9008 3.83837 7.89165Q3.78594 7.88251 3.73477 7.86784Q3.68361 7.85317 3.63429 7.83315Q3.58497 7.81313 3.53806 7.78798Q3.49115 7.76283 3.44718 7.73284Q3.4032 7.70285 3.36267 7.66835Q3.32213 7.63386 3.28549 7.59525Q3.24885 7.55665 3.21651 7.51436L0.531301 4.00293Q0.476604 3.93141 0.435579 3.85125Q0.394554 3.7711 0.368522 3.6849Q0.342491 3.5987 0.332293 3.50924Q0.322094 3.41978 0.328057 3.32993Q0.334021 3.24008 0.355954 3.15275Q0.377886 3.06542 0.415082 2.98342Q0.452277 2.90142 0.503536 2.82739Q0.554794 2.75336 0.618464 2.68969L0.618464 2.68969Z" transform="translate(2.3022137 3.1547813)" id="Rectangle-8" fill="url(#gradient_1)" fill-rule="evenodd" stroke="none" />
    <path d="M0 10.1495C0 4.54409 4.54409 0 10.1495 0C15.7549 0 20.299 4.54409 20.299 10.1495C20.299 15.7549 15.7549 20.299 10.1495 20.299C4.54409 20.299 0 15.7549 0 10.1495Z" transform="translate(3.5893335 4.641181)" id="Ellipse" fill="url(#gradient_1)" fill-rule="evenodd" stroke="none" />
    <path d="M0 6.1245C0 2.74203 2.74203 0 6.1245 0C9.50697 0 12.249 2.74203 12.249 6.1245C12.249 9.50697 9.50697 12.249 6.1245 12.249C2.74203 12.249 0 9.50697 0 6.1245Z" transform="translate(7.6259394 8.769773)" id="Ellipse-2" fill="#002525" fill-rule="evenodd" stroke="none" />
    <path d="M5.09562 4.08773L4.08773 5.09562Q4.02406 5.15929 3.95003 5.21055Q3.876 5.26181 3.794 5.29901Q3.712 5.3362 3.62467 5.35813Q3.53734 5.38007 3.44749 5.38603Q3.35765 5.39199 3.26818 5.38179Q3.17872 5.3716 3.09252 5.34556Q3.00632 5.31953 2.92617 5.27851Q2.84602 5.23748 2.77449 5.18279L0.906395 3.75424Q0.864114 3.72191 0.825508 3.68527Q0.786902 3.64863 0.752408 3.60809Q0.717914 3.56755 0.687922 3.52358Q0.657931 3.47961 0.632782 3.4327Q0.607633 3.38579 0.587611 3.33647Q0.567589 3.28715 0.552921 3.23599Q0.538252 3.18482 0.529104 3.13239Q0.519956 3.07995 0.516431 3.02684Q0.512905 2.97373 0.515044 2.92055Q0.517182 2.86736 0.524959 2.81471Q0.532737 2.76205 0.546065 2.71052Q0.559394 2.65899 0.578122 2.60917Q0.596851 2.55935 0.620767 2.5118Q0.644684 2.46424 0.673518 2.4195Q0.702352 2.37476 0.735776 2.33334Q0.769201 2.29192 0.806838 2.25428L2.25428 0.806838Q2.29192 0.769201 2.33334 0.735776Q2.37476 0.702352 2.4195 0.673518Q2.46424 0.644684 2.5118 0.620767Q2.55935 0.596851 2.60917 0.578122Q2.65899 0.559394 2.71052 0.546065Q2.76205 0.532737 2.81471 0.524959Q2.86736 0.517182 2.92055 0.515044Q2.97373 0.512905 3.02684 0.516431Q3.07995 0.519956 3.13239 0.529104Q3.18482 0.538253 3.23599 0.552921Q3.28715 0.567589 3.33647 0.587611Q3.38579 0.607633 3.4327 0.632782Q3.47961 0.657931 3.52358 0.687922Q3.56755 0.717914 3.60809 0.752408Q3.64863 0.786902 3.68527 0.825508Q3.72191 0.864114 3.75424 0.906395L5.18279 2.77449Q5.23748 2.84602 5.27851 2.92617Q5.31953 3.00632 5.34556 3.09252Q5.3716 3.17872 5.38179 3.26818Q5.39199 3.35765 5.38603 3.44749Q5.38007 3.53734 5.35813 3.62467Q5.3362 3.712 5.29901 3.794Q5.26181 3.876 5.21055 3.95003Q5.15929 4.02406 5.09562 4.08773Z" transform="matrix(0.8660254 -0.5 0.5 0.8660254 42.827805 11.238429)" id="Rectangle-9" fill="url(#gradient_1)" fill-rule="evenodd" stroke="none" />
    <path d="M1.45185 0L2.87722 0Q2.96727 0 3.05586 0.0161009Q3.14445 0.0322019 3.22874 0.0638847Q3.31302 0.0955676 3.39028 0.141811Q3.46754 0.188055 3.53529 0.247368Q3.60304 0.306682 3.65909 0.377154Q3.71514 0.447625 3.75768 0.526984Q3.80022 0.606342 3.82789 0.692029Q3.85556 0.777715 3.86746 0.866969L4.17827 3.19804Q4.18531 3.2508 4.18669 3.30401Q4.18808 3.35722 4.18381 3.41028Q4.17954 3.46333 4.16965 3.51563Q4.15976 3.56793 4.14438 3.61888Q4.12899 3.66984 4.10827 3.71887Q4.08756 3.7679 4.06175 3.81445Q4.03594 3.861 4.00534 3.90455Q3.97473 3.94809 3.93967 3.98814Q3.9046 4.02819 3.86549 4.06428Q3.82637 4.10038 3.78363 4.13211Q3.7409 4.16384 3.69504 4.19086Q3.64918 4.21787 3.6007 4.23986Q3.55223 4.26184 3.5017 4.27856Q3.45116 4.29527 3.39914 4.30652Q3.34711 4.31776 3.29419 4.32342Q3.24126 4.32907 3.18803 4.32907L1.14104 4.32907Q1.08781 4.32907 1.03489 4.32342Q0.981964 4.31776 0.929939 4.30652Q0.877914 4.29527 0.827379 4.27856Q0.776844 4.26184 0.728371 4.23986Q0.679898 4.21787 0.634035 4.19086Q0.588173 4.16384 0.54544 4.13211Q0.502708 4.10038 0.463589 4.06428Q0.424471 4.02819 0.389409 3.98814Q0.354347 3.94809 0.323739 3.90455Q0.293132 3.861 0.267324 3.81445Q0.241517 3.7679 0.220802 3.71887Q0.200087 3.66984 0.184699 3.61888Q0.169311 3.56793 0.159425 3.51563Q0.149538 3.46333 0.145265 3.41028Q0.140992 3.35722 0.142381 3.30401Q0.14377 3.2508 0.150804 3.19804L0.461614 0.866968Q0.473515 0.777715 0.501183 0.692028Q0.528851 0.606342 0.571396 0.526983Q0.61394 0.447625 0.669989 0.377154Q0.726038 0.306682 0.793785 0.247368Q0.861532 0.188055 0.938793 0.141811Q1.01605 0.0955676 1.10034 0.0638847Q1.18462 0.0322019 1.27322 0.0161009Q1.36181 0 1.45185 0Z" transform="matrix(0.86602527 -0.49999994 0.49999994 0.86602527 33.310024 3.428472)" id="Rectangle-10" fill="url(#gradient_1)" fill-rule="evenodd" stroke="none" />
    <path d="M2.87722 4.32907L1.45185 4.32907Q1.36181 4.32907 1.27322 4.31297Q1.18462 4.29687 1.10034 4.26519Q1.01605 4.23351 0.938793 4.18726Q0.861531 4.14102 0.793784 4.08171Q0.726037 4.02239 0.669988 3.95192Q0.613939 3.88145 0.571395 3.80209Q0.528851 3.72273 0.501182 3.63705Q0.473514 3.55136 0.461614 3.46211L0.150804 1.13103Q0.143769 1.07827 0.142381 1.02506Q0.140992 0.971855 0.145265 0.9188Q0.149538 0.865745 0.159425 0.813444Q0.169311 0.761144 0.184699 0.71019Q0.200087 0.659236 0.220802 0.610206Q0.241516 0.561176 0.267324 0.514624Q0.293132 0.468073 0.323739 0.424527Q0.354347 0.380981 0.389409 0.340934Q0.424471 0.300887 0.463589 0.264793Q0.502708 0.228698 0.54544 0.196964Q0.588173 0.165231 0.634035 0.138218Q0.679898 0.111204 0.728371 0.0892174Q0.776844 0.0672303 0.827379 0.0505184Q0.877914 0.0338066 0.929939 0.0225591Q0.981963 0.0113115 1.03489 0.00565577Q1.08781 0 1.14104 0L3.18803 0Q3.24126 0 3.29419 0.00565577Q3.34711 0.0113115 3.39914 0.0225591Q3.45116 0.0338066 3.5017 0.0505185Q3.55223 0.0672304 3.6007 0.0892174Q3.64918 0.111204 3.69504 0.138218Q3.7409 0.165231 3.78363 0.196964Q3.82637 0.228698 3.86548 0.264793Q3.9046 0.300887 3.93966 0.340934Q3.97473 0.380981 4.00533 0.424527Q4.03594 0.468073 4.06175 0.514624Q4.08756 0.561176 4.10827 0.610206Q4.12899 0.659236 4.14438 0.71019Q4.15976 0.761144 4.16965 0.813445Q4.17954 0.865745 4.18381 0.9188Q4.18808 0.971855 4.18669 1.02506Q4.1853 1.07827 4.17827 1.13103L3.86746 3.46211Q3.85556 3.55136 3.82789 3.63705Q3.80022 3.72273 3.75768 3.80209Q3.71513 3.88145 3.65908 3.95192Q3.60304 4.02239 3.53529 4.08171Q3.46754 4.14102 3.39028 4.18726Q3.31302 4.23351 3.22873 4.26519Q3.14445 4.29687 3.05586 4.31297Q2.96727 4.32907 2.87722 4.32907Z" transform="matrix(0.8660254 -0.5 0.5 0.8660254 40.550667 16.188606)" id="Rectangle-11" fill="url(#gradient_1)" fill-rule="evenodd" stroke="none" />
    <path d="M4.32907 1.45185L4.32907 2.87722Q4.32907 2.96727 4.31297 3.05586Q4.29687 3.14445 4.26519 3.22874Q4.23351 3.31302 4.18726 3.39028Q4.14102 3.46754 4.08171 3.53529Q4.02239 3.60304 3.95192 3.65909Q3.88145 3.71513 3.80209 3.75768Q3.72273 3.80022 3.63705 3.82789Q3.55136 3.85556 3.46211 3.86746L1.13103 4.17827Q1.07827 4.18531 1.02506 4.18669Q0.971855 4.18808 0.9188 4.18381Q0.865745 4.17954 0.813444 4.16965Q0.761144 4.15976 0.71019 4.14438Q0.659236 4.12899 0.610206 4.10827Q0.561176 4.08756 0.514624 4.06175Q0.468073 4.03594 0.424527 4.00534Q0.380981 3.97473 0.340934 3.93967Q0.300887 3.9046 0.264793 3.86549Q0.228698 3.82637 0.196964 3.78363Q0.165231 3.7409 0.138218 3.69504Q0.111204 3.64918 0.0892174 3.6007Q0.0672303 3.55223 0.0505184 3.5017Q0.0338066 3.45116 0.0225591 3.39914Q0.0113115 3.34711 0.00565577 3.29419Q0 3.24126 0 3.18803L0 1.14104Q0 1.08781 0.00565577 1.03489Q0.0113115 0.981964 0.0225591 0.929939Q0.0338066 0.877914 0.0505185 0.827379Q0.0672304 0.776844 0.0892174 0.728371Q0.111204 0.679898 0.138218 0.634035Q0.165231 0.588173 0.196964 0.54544Q0.228698 0.502708 0.264793 0.463589Q0.300887 0.424471 0.340934 0.389409Q0.380981 0.354347 0.424527 0.32374Q0.468073 0.293132 0.514624 0.267324Q0.561176 0.241517 0.610206 0.220802Q0.659236 0.200087 0.71019 0.184699Q0.761144 0.169311 0.813445 0.159425Q0.865745 0.149538 0.9188 0.145265Q0.971855 0.140992 1.02506 0.142381Q1.07827 0.14377 1.13103 0.150804L3.46211 0.461614Q3.55136 0.473515 3.63705 0.501183Q3.72273 0.528851 3.80209 0.571396Q3.88145 0.61394 3.95192 0.669989Q4.02239 0.726038 4.08171 0.793785Q4.14102 0.861532 4.18726 0.938793Q4.23351 1.01605 4.26519 1.10034Q4.29687 1.18462 4.31297 1.27322Q4.32907 1.36181 4.32907 1.45185L4.32907 1.45185Z" transform="matrix(0.8660254 -0.5 0.5 0.8660254 43.287617 5.9741626)" id="Rectangle-12" fill="url(#gradient_1)" fill-rule="evenodd" stroke="none" />
    <path d="M2.71917e-07 2.87722L1.03404e-07 1.45185Q9.27584e-08 1.36181 0.016101 1.27322Q0.0322019 1.18462 0.0638848 1.10034Q0.0955677 1.01605 0.141811 0.938793Q0.188055 0.861532 0.247368 0.793785Q0.306682 0.726038 0.377154 0.669989Q0.447625 0.61394 0.526984 0.571396Q0.606342 0.528851 0.692029 0.501183Q0.777715 0.473515 0.866969 0.461614L3.19804 0.150804Q3.2508 0.14377 3.30401 0.142381Q3.35722 0.140992 3.41027 0.145265Q3.46333 0.149538 3.51563 0.159425Q3.56793 0.169311 3.61888 0.184699Q3.66984 0.200087 3.71887 0.220802Q3.7679 0.241517 3.81445 0.267324Q3.861 0.293132 3.90455 0.32374Q3.94809 0.354347 3.98814 0.389409Q4.02819 0.424471 4.06428 0.463589Q4.10038 0.502708 4.13211 0.54544Q4.16384 0.588173 4.19086 0.634035Q4.21787 0.679898 4.23986 0.728371Q4.26184 0.776844 4.27856 0.827379Q4.29527 0.877914 4.30652 0.929939Q4.31776 0.981963 4.32342 1.03489Q4.32907 1.08781 4.32907 1.14104L4.32907 3.18803Q4.32907 3.24126 4.32342 3.29418Q4.31776 3.34711 4.30652 3.39913Q4.29527 3.45116 4.27856 3.50169Q4.26184 3.55223 4.23986 3.6007Q4.21787 3.64918 4.19086 3.69504Q4.16384 3.7409 4.13211 3.78363Q4.10038 3.82637 4.06428 3.86548Q4.02819 3.9046 3.98814 3.93966Q3.94809 3.97473 3.90455 4.00533Q3.861 4.03594 3.81445 4.06175Q3.7679 4.08756 3.71887 4.10827Q3.66984 4.12899 3.61888 4.14437Q3.56793 4.15976 3.51563 4.16965Q3.46333 4.17954 3.41028 4.18381Q3.35722 4.18808 3.30401 4.18669Q3.2508 4.1853 3.19804 4.17827L0.866969 3.86746Q0.777716 3.85556 0.692029 3.82789Q0.606342 3.80022 0.526984 3.75768Q0.447626 3.71513 0.377154 3.65909Q0.306682 3.60304 0.247369 3.53529Q0.188055 3.46754 0.141811 3.39028Q0.0955679 3.31302 0.0638851 3.22874Q0.0322022 3.14445 0.0161012 3.05586Q2.82562e-07 2.96727 2.71917e-07 2.87722L2.71917e-07 2.87722Z" transform="matrix(0.8660254 -0.5 0.5 0.8660254 30.677044 13.254879)" id="Rectangle-13" fill="url(#gradient_1)" fill-rule="evenodd" stroke="none" />
    <path d="M1.62636 5.09562L0.618465 4.08773Q0.554795 4.02406 0.503536 3.95003Q0.452277 3.876 0.415082 3.794Q0.377886 3.712 0.355954 3.62467Q0.334021 3.53734 0.328058 3.44749Q0.322094 3.35765 0.332293 3.26818Q0.342491 3.17872 0.368522 3.09252Q0.394554 3.00632 0.435579 2.92617Q0.476604 2.84601 0.531301 2.77449L1.95984 0.906394Q1.99218 0.864113 2.02882 0.825507Q2.06546 0.786901 2.106 0.752407Q2.14653 0.717913 2.19051 0.687922Q2.23448 0.657931 2.28139 0.632782Q2.3283 0.607633 2.37762 0.587611Q2.42694 0.567589 2.4781 0.552921Q2.52927 0.538252 2.5817 0.529104Q2.63414 0.519955 2.68725 0.51643Q2.74036 0.512905 2.79354 0.515044Q2.84672 0.517182 2.89938 0.524959Q2.95203 0.532737 3.00356 0.546065Q3.0551 0.559393 3.10492 0.578122Q3.15474 0.59685 3.20229 0.620767Q3.24984 0.644684 3.29458 0.673518Q3.33932 0.702351 3.38075 0.735776Q3.42217 0.769201 3.45981 0.806837L4.90725 2.25428Q4.94489 2.29192 4.97831 2.33334Q5.01174 2.37476 5.04057 2.4195Q5.0694 2.46424 5.09332 2.51179Q5.11724 2.55935 5.13596 2.60917Q5.15469 2.65899 5.16802 2.71052Q5.18135 2.76205 5.18913 2.81471Q5.19691 2.86736 5.19904 2.92055Q5.20118 2.97373 5.19766 3.02684Q5.19413 3.07995 5.18498 3.13239Q5.17583 3.18482 5.16117 3.23599Q5.1465 3.28715 5.12648 3.33647Q5.10645 3.38579 5.08131 3.4327Q5.05616 3.47961 5.02617 3.52358Q4.99617 3.56755 4.96168 3.60809Q4.92719 3.64863 4.88858 3.68527Q4.84997 3.72191 4.80769 3.75424L2.9396 5.18279Q2.86807 5.23748 2.78792 5.27851Q2.70776 5.31953 2.62156 5.34556Q2.53537 5.37159 2.4459 5.38179Q2.35644 5.39199 2.26659 5.38603Q2.17675 5.38007 2.08942 5.35813Q2.00209 5.3362 1.92009 5.299Q1.83808 5.26181 1.76405 5.21055Q1.69003 5.15929 1.62636 5.09562L1.62636 5.09562Z" transform="matrix(0.8660254 -0.5 0.5 0.8660254 34.27248 16.051426)" id="Rectangle-14" fill="url(#gradient_1)" fill-rule="evenodd" stroke="none" />
    <path d="M4.08773 0.618464L5.09562 1.62636Q5.15929 1.69003 5.21055 1.76405Q5.26181 1.83808 5.29901 1.92009Q5.3362 2.00209 5.35813 2.08942Q5.38007 2.17675 5.38603 2.26659Q5.39199 2.35644 5.38179 2.4459Q5.3716 2.53537 5.34556 2.62157Q5.31953 2.70776 5.27851 2.78792Q5.23748 2.86807 5.18279 2.9396L3.75424 4.80769Q3.72191 4.84997 3.68527 4.88858Q3.64863 4.92719 3.60809 4.96168Q3.56755 4.99617 3.52358 5.02616Q3.47961 5.05616 3.4327 5.08131Q3.38579 5.10645 3.33647 5.12648Q3.28715 5.1465 3.23599 5.16117Q3.18482 5.17583 3.13239 5.18498Q3.07995 5.19413 3.02684 5.19766Q2.97373 5.20118 2.92055 5.19904Q2.86736 5.19691 2.81471 5.18913Q2.76205 5.18135 2.71052 5.16802Q2.65899 5.15469 2.60917 5.13596Q2.55935 5.11724 2.51179 5.09332Q2.46424 5.0694 2.4195 5.04057Q2.37476 5.01174 2.33334 4.97831Q2.29192 4.94489 2.25428 4.90725L0.806838 3.45981Q0.769201 3.42217 0.735776 3.38075Q0.702352 3.33932 0.673518 3.29458Q0.644684 3.24984 0.620767 3.20229Q0.596851 3.15474 0.578122 3.10492Q0.559394 3.0551 0.546065 3.00357Q0.532737 2.95203 0.524959 2.89938Q0.517182 2.84672 0.515044 2.79354Q0.512905 2.74036 0.516431 2.68725Q0.519956 2.63414 0.529104 2.5817Q0.538252 2.52927 0.552921 2.4781Q0.567589 2.42694 0.587611 2.37762Q0.607633 2.3283 0.632782 2.28139Q0.657931 2.23448 0.687922 2.19051Q0.717914 2.14653 0.752408 2.106Q0.786902 2.06546 0.825508 2.02882Q0.864114 1.99218 0.906395 1.95984L2.77449 0.531301Q2.84602 0.476604 2.92617 0.435579Q3.00632 0.394554 3.09252 0.368522Q3.17872 0.342491 3.26818 0.332292Q3.35765 0.322094 3.44749 0.328057Q3.53734 0.334021 3.62467 0.355953Q3.712 0.377886 3.794 0.415082Q3.876 0.452277 3.95003 0.503536Q4.02406 0.554794 4.08773 0.618464L4.08773 0.618464Z" transform="matrix(0.8660254 -0.5 0.5 0.8660254 37.90846 2.4817462)" id="Rectangle-15" fill="url(#gradient_1)" fill-rule="evenodd" stroke="none" />
    <path d="M0.618464 1.62636L1.62635 0.618465Q1.69002 0.554795 1.76405 0.503536Q1.83808 0.452277 1.92008 0.415082Q2.00209 0.377886 2.08942 0.355954Q2.17675 0.334021 2.26659 0.328057Q2.35644 0.322094 2.4459 0.332293Q2.53537 0.342491 2.62156 0.368522Q2.70776 0.394554 2.78792 0.435579Q2.86807 0.476604 2.9396 0.531301L4.80769 1.95984Q4.84997 1.99218 4.88858 2.02882Q4.92718 2.06546 4.96168 2.106Q4.99617 2.14653 5.02616 2.19051Q5.05615 2.23448 5.0813 2.28139Q5.10645 2.3283 5.12647 2.37762Q5.1465 2.42693 5.16116 2.4781Q5.17583 2.52927 5.18498 2.5817Q5.19413 2.63414 5.19766 2.68725Q5.20118 2.74036 5.19904 2.79354Q5.1969 2.84672 5.18913 2.89938Q5.18135 2.95203 5.16802 3.00356Q5.15469 3.05509 5.13596 3.10492Q5.11724 3.15474 5.09332 3.20229Q5.0694 3.24984 5.04057 3.29458Q5.01173 3.33932 4.97831 3.38075Q4.94489 3.42217 4.90725 3.45981L3.45981 4.90725Q3.42217 4.94489 3.38075 4.97831Q3.33932 5.01173 3.29458 5.04057Q3.24984 5.0694 3.20229 5.09332Q3.15474 5.11724 3.10492 5.13596Q3.0551 5.15469 3.00356 5.16802Q2.95203 5.18135 2.89938 5.18913Q2.84672 5.1969 2.79354 5.19904Q2.74036 5.20118 2.68725 5.19766Q2.63414 5.19413 2.5817 5.18498Q2.52927 5.17583 2.4781 5.16116Q2.42694 5.1465 2.37762 5.12647Q2.3283 5.10645 2.28139 5.0813Q2.23448 5.05615 2.19051 5.02616Q2.14653 4.99617 2.106 4.96168Q2.06546 4.92718 2.02882 4.88858Q1.99218 4.84997 1.95984 4.80769L0.531301 2.9396Q0.476604 2.86807 0.435579 2.78792Q0.394554 2.70776 0.368522 2.62156Q0.342491 2.53537 0.332293 2.4459Q0.322094 2.35644 0.328057 2.26659Q0.334021 2.17675 0.355954 2.08942Q0.377886 2.00209 0.415082 1.92008Q0.452277 1.83808 0.503536 1.76405Q0.554794 1.69003 0.618464 1.62636L0.618464 1.62636Z" transform="matrix(0.8660254 -0.5 0.5 0.8660254 29.099981 7.5475097)" id="Rectangle-16" fill="url(#gradient_1)" fill-rule="evenodd" stroke="none" />
    <path d="M0 6.88717C0 3.08349 3.08349 0 6.88717 0C10.6908 0 13.7743 3.08349 13.7743 6.88717C13.7743 10.6908 10.6908 13.7743 6.88717 13.7743C3.08349 13.7743 0 10.6908 0 6.88717Z" transform="matrix(0.8660254 -0.5 0.5 0.8660254 30.360685 7.984306)" id="Ellipse-3" fill="url(#gradient_1)" fill-rule="evenodd" stroke="none" />
    <path d="M0 4.15591C0 1.86067 1.86067 0 4.15591 0C6.45116 0 8.31183 1.86067 8.31183 4.15591C8.31183 6.45116 6.45116 8.31183 4.15591 8.31183C1.86067 8.31183 0 6.45116 0 4.15591Z" transform="matrix(0.8660254 -0.5 0.5 0.8660254 34.13361 9.040952)" id="Ellipse-4" fill="#002525" fill-rule="evenodd" stroke="none" />
    <path d="M7.8023 5.73107L5.73107 7.8023Q5.6674 7.86597 5.59337 7.91723Q5.51934 7.96848 5.43734 8.00568Q5.35534 8.04287 5.26801 8.06481Q5.18068 8.08674 5.09083 8.0927Q5.00099 8.09867 4.91152 8.08847Q4.82206 8.07827 4.73586 8.05224Q4.64966 8.02621 4.56951 7.98518Q4.48935 7.94416 4.41783 7.88946L0.906395 5.20425Q0.864114 5.17192 0.825508 5.13527Q0.786902 5.09863 0.752408 5.05809Q0.717914 5.01756 0.687922 4.97358Q0.657931 4.92961 0.632782 4.8827Q0.607633 4.83579 0.587611 4.78647Q0.567589 4.73716 0.552921 4.68599Q0.538252 4.63482 0.529104 4.58239Q0.519956 4.52995 0.516431 4.47685Q0.512905 4.42374 0.515044 4.37055Q0.517182 4.31737 0.524959 4.26471Q0.532737 4.21206 0.546065 4.16053Q0.559394 4.109 0.578122 4.05917Q0.596851 4.00935 0.620767 3.9618Q0.644684 3.91425 0.673518 3.86951Q0.702352 3.82477 0.735776 3.78334Q0.769201 3.74192 0.806838 3.70428L3.70428 0.806838Q3.74192 0.769201 3.78334 0.735776Q3.82477 0.702352 3.86951 0.673518Q3.91425 0.644684 3.9618 0.620767Q4.00935 0.596851 4.05917 0.578122Q4.10899 0.559394 4.16053 0.546065Q4.21206 0.532737 4.26471 0.524959Q4.31737 0.517182 4.37055 0.515044Q4.42374 0.512905 4.47684 0.516431Q4.52995 0.519956 4.58239 0.529104Q4.63482 0.538252 4.68599 0.552921Q4.73716 0.567589 4.78647 0.587611Q4.83579 0.607633 4.8827 0.632782Q4.92961 0.657931 4.97358 0.687922Q5.01756 0.717914 5.05809 0.752408Q5.09863 0.786902 5.13527 0.825508Q5.17192 0.864114 5.20425 0.906395L7.88946 4.41783Q7.94416 4.48935 7.98518 4.56951Q8.02621 4.64966 8.05224 4.73586Q8.07827 4.82206 8.08847 4.91152Q8.09867 5.00099 8.0927 5.09083Q8.08674 5.18068 8.06481 5.26801Q8.04288 5.35534 8.00568 5.43734Q7.96848 5.51934 7.91723 5.59337Q7.86597 5.6674 7.8023 5.73107L7.8023 5.73107Z" transform="translate(39.19319 39.580544)" id="Rectangle" fill="url(#gradient_1)" fill-rule="evenodd" stroke="none" />
    <path d="M1.72527 0L4.65442 0Q4.74447 0 4.83306 0.0161009Q4.92165 0.0322019 5.00594 0.0638847Q5.09022 0.0955676 5.16748 0.141811Q5.24474 0.188055 5.31249 0.247368Q5.38024 0.306682 5.43629 0.377154Q5.49233 0.447625 5.53488 0.526984Q5.57742 0.606342 5.60509 0.692029Q5.63276 0.777715 5.64466 0.866969L6.22889 5.24866Q6.23592 5.30142 6.23731 5.35463Q6.2387 5.40784 6.23442 5.46089Q6.23015 5.51395 6.22026 5.56625Q6.21038 5.61855 6.19499 5.6695Q6.1796 5.72045 6.15889 5.76948Q6.13817 5.81851 6.11237 5.86507Q6.08656 5.91162 6.05595 5.95516Q6.02534 5.99871 5.99028 6.03876Q5.95522 6.0788 5.9161 6.1149Q5.87698 6.15099 5.83425 6.18273Q5.79152 6.21446 5.74565 6.24147Q5.69979 6.26849 5.65132 6.29047Q5.60285 6.31246 5.55231 6.32917Q5.50178 6.34588 5.44975 6.35713Q5.39773 6.36838 5.3448 6.37403Q5.29188 6.37969 5.23865 6.37969L1.14104 6.37969Q1.08781 6.37969 1.03489 6.37403Q0.981964 6.36838 0.929939 6.35713Q0.877914 6.34588 0.827379 6.32917Q0.776844 6.31246 0.728371 6.29047Q0.679898 6.26849 0.634035 6.24147Q0.588173 6.21446 0.54544 6.18273Q0.502708 6.15099 0.463589 6.1149Q0.424471 6.0788 0.389409 6.03876Q0.354347 5.99871 0.323739 5.95516Q0.293132 5.91162 0.267324 5.86507Q0.241517 5.81851 0.220802 5.76948Q0.200087 5.72045 0.184699 5.6695Q0.169311 5.61855 0.159425 5.56625Q0.149538 5.51395 0.145265 5.46089Q0.140992 5.40784 0.142381 5.35463Q0.14377 5.30142 0.150804 5.24866L0.73503 0.866968Q0.74693 0.777715 0.774598 0.692028Q0.802267 0.606342 0.844811 0.526983Q0.887355 0.447625 0.943404 0.377154Q0.999453 0.306682 1.0672 0.247368Q1.13495 0.188055 1.21221 0.141811Q1.28947 0.0955676 1.37375 0.0638847Q1.45804 0.0322019 1.54663 0.0161009Q1.63522 0 1.72527 0Z" transform="matrix(0.99999994 1.040243E-09 -1.040243E-09 0.99999994 32.800842 22.6)" id="Rectangle-2" fill="url(#gradient_1)" fill-rule="evenodd" stroke="none" />
    <path d="M4.65442 6.37969L1.72527 6.37969Q1.63522 6.37969 1.54663 6.36359Q1.45804 6.34749 1.37375 6.3158Q1.28947 6.28412 1.21221 6.23788Q1.13495 6.19164 1.0672 6.13232Q0.999453 6.07301 0.943404 6.00254Q0.887355 5.93207 0.84481 5.85271Q0.802266 5.77335 0.774598 5.68766Q0.746929 5.60197 0.735029 5.51272L0.150804 1.13103Q0.143769 1.07827 0.142381 1.02506Q0.140992 0.971855 0.145265 0.9188Q0.149538 0.865745 0.159425 0.813444Q0.169311 0.761144 0.184699 0.71019Q0.200087 0.659236 0.220802 0.610206Q0.241516 0.561176 0.267324 0.514624Q0.293132 0.468073 0.323739 0.424527Q0.354347 0.380981 0.389409 0.340934Q0.424471 0.300887 0.463589 0.264793Q0.502708 0.228698 0.54544 0.196964Q0.588173 0.165231 0.634035 0.138218Q0.679898 0.111204 0.728371 0.0892174Q0.776844 0.0672303 0.827379 0.0505184Q0.877914 0.0338066 0.929939 0.0225591Q0.981963 0.0113115 1.03489 0.00565577Q1.08781 0 1.14104 0L5.23865 0Q5.29187 0 5.3448 0.00565577Q5.39773 0.0113115 5.44975 0.0225591Q5.50177 0.0338066 5.55231 0.0505185Q5.60285 0.0672304 5.65132 0.0892174Q5.69979 0.111204 5.74565 0.138218Q5.79152 0.165231 5.83425 0.196964Q5.87698 0.228698 5.9161 0.264793Q5.95522 0.300887 5.99028 0.340934Q6.02534 0.380981 6.05595 0.424527Q6.08656 0.468073 6.11237 0.514624Q6.13817 0.561176 6.15889 0.610206Q6.1796 0.659236 6.19499 0.71019Q6.21038 0.761144 6.22026 0.813445Q6.23015 0.865745 6.23442 0.9188Q6.2387 0.971855 6.23731 1.02506Q6.23592 1.07827 6.22888 1.13103L5.64466 5.51272Q5.63276 5.60197 5.60509 5.68766Q5.57742 5.77335 5.53488 5.85271Q5.49233 5.93206 5.43628 6.00254Q5.38023 6.07301 5.31249 6.13232Q5.24474 6.19163 5.16748 6.23788Q5.09022 6.28412 5.00593 6.3158Q4.92165 6.34749 4.83306 6.36359Q4.74446 6.37969 4.65442 6.37969Z" transform="translate(32.639496 44.220306)" id="Rectangle-3" fill="url(#gradient_1)" fill-rule="evenodd" stroke="none" />
    <path d="M6.37969 1.72527L6.37969 4.65442Q6.37969 4.74447 6.36359 4.83306Q6.34749 4.92165 6.3158 5.00593Q6.28412 5.09022 6.23788 5.16748Q6.19163 5.24474 6.13232 5.31249Q6.07301 5.38024 6.00254 5.43629Q5.93206 5.49233 5.85271 5.53488Q5.77335 5.57742 5.68766 5.60509Q5.60197 5.63276 5.51272 5.64466L1.13103 6.22889Q1.07827 6.23592 1.02506 6.23731Q0.971855 6.2387 0.9188 6.23443Q0.865745 6.23015 0.813445 6.22027Q0.761144 6.21038 0.71019 6.19499Q0.659236 6.1796 0.610206 6.15889Q0.561176 6.13817 0.514624 6.11237Q0.468073 6.08656 0.424527 6.05595Q0.380981 6.02534 0.340934 5.99028Q0.300887 5.95522 0.264793 5.9161Q0.228698 5.87698 0.196964 5.83425Q0.165231 5.79152 0.138218 5.74566Q0.111204 5.69979 0.0892174 5.65132Q0.0672304 5.60285 0.0505185 5.55231Q0.0338066 5.50178 0.0225591 5.44975Q0.0113115 5.39773 0.00565577 5.3448Q0 5.29188 0 5.23865L0 1.14104Q0 1.08781 0.00565577 1.03489Q0.0113115 0.981964 0.0225591 0.929939Q0.0338066 0.877914 0.0505185 0.827379Q0.0672304 0.776844 0.0892174 0.728371Q0.111204 0.679898 0.138218 0.634035Q0.165231 0.588173 0.196964 0.54544Q0.228698 0.502708 0.264793 0.463589Q0.300887 0.424471 0.340934 0.389409Q0.380981 0.354347 0.424527 0.32374Q0.468073 0.293132 0.514624 0.267324Q0.561176 0.241517 0.610206 0.220802Q0.659236 0.200087 0.71019 0.184699Q0.761144 0.169311 0.813445 0.159425Q0.865745 0.149538 0.9188 0.145265Q0.971855 0.140992 1.02506 0.142381Q1.07827 0.14377 1.13103 0.150804L5.51272 0.73503Q5.60197 0.74693 5.68766 0.774599Q5.77335 0.802267 5.85271 0.844811Q5.93206 0.887356 6.00254 0.943405Q6.07301 0.999454 6.13232 1.0672Q6.19163 1.13495 6.23788 1.21221Q6.28412 1.28947 6.3158 1.37375Q6.34749 1.45804 6.36359 1.54663Q6.37969 1.63522 6.37969 1.72527Z" transform="translate(43.65896 33.200844)" id="Rectangle-4" fill="url(#gradient_1)" fill-rule="evenodd" stroke="none" />
    <path d="M4.49701e-07 4.65442L1.03404e-07 1.72527Q9.27584e-08 1.63522 0.016101 1.54663Q0.0322019 1.45804 0.0638848 1.37375Q0.0955677 1.28947 0.141811 1.21221Q0.188055 1.13495 0.247368 1.0672Q0.306682 0.999454 0.377154 0.943405Q0.447625 0.887355 0.526984 0.844811Q0.606342 0.802267 0.692029 0.774598Q0.777715 0.74693 0.866969 0.73503L5.24866 0.150804Q5.30142 0.14377 5.35463 0.142381Q5.40783 0.140992 5.46089 0.145265Q5.51394 0.149538 5.56624 0.159425Q5.61855 0.169311 5.6695 0.184699Q5.72045 0.200087 5.76948 0.220802Q5.81851 0.241517 5.86507 0.267324Q5.91162 0.293132 5.95516 0.32374Q5.99871 0.354347 6.03875 0.389409Q6.0788 0.424471 6.1149 0.463589Q6.15099 0.502708 6.18272 0.54544Q6.21446 0.588173 6.24147 0.634035Q6.26848 0.679898 6.29047 0.728371Q6.31246 0.776844 6.32917 0.827379Q6.34588 0.877914 6.35713 0.929939Q6.36838 0.981963 6.37403 1.03489Q6.37969 1.08781 6.37969 1.14104L6.37969 5.23865Q6.37969 5.29187 6.37403 5.3448Q6.36838 5.39773 6.35713 5.44975Q6.34588 5.50177 6.32917 5.55231Q6.31246 5.60285 6.29047 5.65132Q6.26849 5.69979 6.24147 5.74565Q6.21446 5.79152 6.18273 5.83425Q6.15099 5.87698 6.1149 5.9161Q6.0788 5.95522 6.03876 5.99028Q5.99871 6.02534 5.95516 6.05595Q5.91162 6.08656 5.86507 6.11237Q5.81851 6.13817 5.76948 6.15889Q5.72045 6.1796 5.6695 6.19499Q5.61855 6.21038 5.56625 6.22026Q5.51395 6.23015 5.46089 6.23442Q5.40784 6.2387 5.35463 6.23731Q5.30142 6.23592 5.24866 6.22888L0.866969 5.64466Q0.777716 5.63276 0.692029 5.60509Q0.606342 5.57742 0.526984 5.53488Q0.447626 5.49233 0.377154 5.43628Q0.306682 5.38024 0.247369 5.31249Q0.188055 5.24474 0.141812 5.16748Q0.0955681 5.09022 0.0638852 5.00593Q0.0322023 4.92165 0.0161014 4.83306Q4.60346e-07 4.74447 4.49701e-07 4.65442Z" transform="translate(22.2 33.200844)" id="Rectangle-5" fill="url(#gradient_1)" fill-rule="evenodd" stroke="none" />
    <path d="M2.68969 7.80229L0.618465 5.73107Q0.554795 5.6674 0.503536 5.59337Q0.452277 5.51934 0.415082 5.43734Q0.377886 5.35534 0.355954 5.268Q0.334021 5.18067 0.328058 5.09083Q0.322094 5.00098 0.332293 4.91152Q0.342491 4.82206 0.368522 4.73586Q0.394554 4.64966 0.435579 4.56951Q0.476604 4.48935 0.531301 4.41782L3.21651 0.906394Q3.24885 0.864113 3.28549 0.825507Q3.32213 0.786901 3.36267 0.752407Q3.40321 0.717913 3.44718 0.687922Q3.49115 0.657931 3.53806 0.632782Q3.58497 0.607633 3.63429 0.587611Q3.68361 0.567589 3.73477 0.552921Q3.78594 0.538252 3.83837 0.529104Q3.89081 0.519955 3.94392 0.51643Q3.99703 0.512905 4.05021 0.515043Q4.10339 0.517182 4.15605 0.524959Q4.2087 0.532736 4.26023 0.546065Q4.31177 0.559393 4.36159 0.578122Q4.41141 0.59685 4.45896 0.620767Q4.50651 0.644684 4.55125 0.673517Q4.59599 0.702351 4.63742 0.735776Q4.67884 0.7692 4.71648 0.806837L7.61392 3.70428Q7.65156 3.74192 7.68499 3.78334Q7.71841 3.82477 7.74724 3.86951Q7.77608 3.91425 7.79999 3.9618Q7.82391 4.00935 7.84264 4.05917Q7.86137 4.10899 7.8747 4.16053Q7.88802 4.21206 7.8958 4.26471Q7.90358 4.31737 7.90572 4.37055Q7.90786 4.42373 7.90433 4.47684Q7.9008 4.52995 7.89166 4.58239Q7.88251 4.63482 7.86784 4.68599Q7.85317 4.73715 7.83315 4.78647Q7.81313 4.83579 7.78798 4.8827Q7.76283 4.92961 7.73284 4.97358Q7.70285 5.01756 7.66835 5.05809Q7.63386 5.09863 7.59525 5.13527Q7.55665 5.17191 7.51437 5.20425L4.00293 7.88946Q3.93141 7.94416 3.85125 7.98518Q3.7711 8.02621 3.6849 8.05224Q3.5987 8.07827 3.50924 8.08847Q3.41978 8.09867 3.32993 8.0927Q3.24009 8.08674 3.15275 8.06481Q3.06542 8.04287 2.98342 8.00568Q2.90142 7.96848 2.82739 7.91722Q2.75336 7.86596 2.68969 7.80229Z" transform="translate(24.728048 39.419197)" id="Rectangle-6" fill="url(#gradient_1)" fill-rule="evenodd" stroke="none" />
    <path d="M5.73107 0.618464L7.8023 2.68969Q7.86597 2.75336 7.91723 2.82739Q7.96848 2.90142 8.00568 2.98342Q8.04288 3.06542 8.06481 3.15275Q8.08674 3.24009 8.0927 3.32993Q8.09867 3.41978 8.08847 3.50924Q8.07827 3.5987 8.05224 3.6849Q8.02621 3.7711 7.98518 3.85125Q7.94416 3.93141 7.88946 4.00293L5.20425 7.51437Q5.17192 7.55665 5.13527 7.59525Q5.09863 7.63386 5.05809 7.66835Q5.01756 7.70285 4.97358 7.73284Q4.92961 7.76283 4.8827 7.78798Q4.83579 7.81313 4.78647 7.83315Q4.73716 7.85317 4.68599 7.86784Q4.63482 7.88251 4.58239 7.89166Q4.52995 7.90081 4.47684 7.90433Q4.42374 7.90786 4.37055 7.90572Q4.31737 7.90358 4.26471 7.8958Q4.21206 7.88803 4.16053 7.8747Q4.10899 7.86137 4.05917 7.84264Q4.00935 7.82391 3.9618 7.8Q3.91425 7.77608 3.86951 7.74724Q3.82477 7.71841 3.78334 7.68499Q3.74192 7.65156 3.70428 7.61392L0.806838 4.71648Q0.769201 4.67884 0.735776 4.63742Q0.702352 4.59599 0.673518 4.55125Q0.644684 4.50651 0.620767 4.45896Q0.596851 4.41141 0.578122 4.36159Q0.559394 4.31177 0.546065 4.26024Q0.532737 4.2087 0.524959 4.15605Q0.517182 4.10339 0.515044 4.05021Q0.512905 3.99703 0.516431 3.94392Q0.519956 3.89081 0.529104 3.83837Q0.538252 3.78594 0.552921 3.73477Q0.567589 3.68361 0.587611 3.63429Q0.607633 3.58497 0.632782 3.53806Q0.657931 3.49115 0.687922 3.44718Q0.717914 3.40321 0.752408 3.36267Q0.786902 3.32213 0.825508 3.28549Q0.864114 3.24885 0.906395 3.21651L4.41783 0.531301Q4.48935 0.476604 4.56951 0.435579Q4.64966 0.394554 4.73586 0.368522Q4.82206 0.342491 4.91152 0.332292Q5.00098 0.322094 5.09083 0.328057Q5.18068 0.334021 5.26801 0.355953Q5.35534 0.377886 5.43734 0.415081Q5.51934 0.452277 5.59337 0.503536Q5.6674 0.554794 5.73107 0.618464L5.73107 0.618464Z" transform="translate(39.36718 24.780067)" id="Rectangle-7" fill="url(#gradient_1)" fill-rule="evenodd" stroke="none" />
    <path d="M0.618464 2.68969L2.68969 0.618465Q2.75336 0.554795 2.82739 0.503536Q2.90142 0.452277 2.98342 0.415082Q3.06542 0.377886 3.15275 0.355954Q3.24008 0.334021 3.32993 0.328057Q3.41978 0.322094 3.50924 0.332292Q3.5987 0.342491 3.6849 0.368522Q3.7711 0.394554 3.85125 0.435579Q3.93141 0.476604 4.00293 0.531301L7.51436 3.21651Q7.55665 3.24884 7.59525 3.28549Q7.63386 3.32213 7.66835 3.36267Q7.70285 3.4032 7.73284 3.44718Q7.76283 3.49115 7.78798 3.53806Q7.81313 3.58497 7.83315 3.63429Q7.85317 3.6836 7.86784 3.73477Q7.88251 3.78594 7.89165 3.83837Q7.9008 3.8908 7.90433 3.94391Q7.90785 3.99702 7.90571 4.05021Q7.90358 4.10339 7.8958 4.15605Q7.88802 4.2087 7.87469 4.26023Q7.86137 4.31176 7.84264 4.36159Q7.82391 4.41141 7.79999 4.45896Q7.77608 4.50651 7.74724 4.55125Q7.71841 4.59599 7.68498 4.63742Q7.65156 4.67884 7.61392 4.71648L4.71648 7.61392Q4.67884 7.65156 4.63742 7.68498Q4.59599 7.71841 4.55125 7.74724Q4.50651 7.77607 4.45896 7.79999Q4.41141 7.82391 4.36159 7.84264Q4.31177 7.86136 4.26023 7.87469Q4.2087 7.88802 4.15605 7.8958Q4.10339 7.90358 4.05021 7.90571Q3.99703 7.90785 3.94392 7.90433Q3.89081 7.9008 3.83837 7.89165Q3.78594 7.88251 3.73477 7.86784Q3.68361 7.85317 3.63429 7.83315Q3.58497 7.81313 3.53806 7.78798Q3.49115 7.76283 3.44718 7.73284Q3.4032 7.70285 3.36267 7.66835Q3.32213 7.63386 3.28549 7.59525Q3.24885 7.55665 3.21651 7.51436L0.531301 4.00293Q0.476604 3.93141 0.435579 3.85125Q0.394554 3.7711 0.368522 3.6849Q0.342491 3.5987 0.332293 3.50924Q0.322094 3.41978 0.328057 3.32993Q0.334021 3.24008 0.355954 3.15275Q0.377886 3.06542 0.415082 2.98342Q0.452277 2.90142 0.503536 2.82739Q0.554794 2.75336 0.618464 2.68969L0.618464 2.68969Z" transform="translate(24.392708 24.75478)" id="Rectangle-8" fill="url(#gradient_1)" fill-rule="evenodd" stroke="none" />
    <path d="M0 10.1495C0 4.54409 4.54409 0 10.1495 0C15.7549 0 20.299 4.54409 20.299 10.1495C20.299 15.7549 15.7549 20.299 10.1495 20.299C4.54409 20.299 0 15.7549 0 10.1495Z" transform="translate(25.679829 26.24118)" id="Ellipse" fill="url(#gradient_1)" fill-rule="evenodd" stroke="none" />
    <path d="M0 6.1245C0 2.74203 2.74203 0 6.1245 0C9.50697 0 12.249 2.74203 12.249 6.1245C12.249 9.50697 9.50697 12.249 6.1245 12.249C2.74203 12.249 0 9.50697 0 6.1245Z" transform="translate(29.716434 30.36977)" id="Ellipse-2" fill="#002525" fill-rule="evenodd" stroke="none" />
  </g>
</svg>