<?xml version="1.0" encoding="utf-8"?>
<svg width="182px" height="26px" viewbox="0 0 182 26" version="1.1" xmlns:xlink="http://www.w3.org/1999/xlink" xmlns="http://www.w3.org/2000/svg">
  <defs>
    <path d="M0 0L26 0L26 26L0 26L0 0Z" id="path_1" />
    <path d="M0 0L25 0L25 25L0 25L0 0L0 0Z" id="path_2" />
    <clipPath id="mask_1">
      <use xlink:href="#path_1" />
    </clipPath>
    <clipPath id="mask_2">
      <use xlink:href="#path_2" />
    </clipPath>
  </defs>
  <g id="My-Logo-+-Name">
    <path d="M0 0L26 0L26 26L0 26L0 0Z" id="Background" fill="none" fill-rule="evenodd" stroke="none" />
    <g clip-path="url(#mask_1)">
      <g id="My-Logo" transform="translate(0.5 0.5)" opacity="0.9">
        <path d="M0 0L25 0L25 25L0 25L0 0L0 0Z" id="Background" fill="none" fill-rule="evenodd" stroke="none" />
        <g id="Mask-group">
          <path d="M0 0L25 0L25 25L0 25L0 0L0 0Z" id="path_1" fill="none" fill-rule="evenodd" stroke="none" />
          <g clip-path="url(#mask_2)">
            <g id="Group" transform="translate(0.5 0.5)">
              <g id="Mask-group">
                <g id="Icon">
                  <path d="M0 0L24 0L24 24L0 24L0 0L0 0L0 0Z" id="artboard_1" fill="#FFFFFF" fill-opacity="0" fill-rule="evenodd" stroke="none" />
                  <path d="M1.999 0L22.001 0C22.0665 0 22.1318 0.00320816 22.1969 0.00962543C22.2621 0.0160427 22.3268 0.0256376 22.391 0.0384102C22.4552 0.0511827 22.5186 0.067071 22.5813 0.0860767C22.644 0.105082 22.7055 0.127111 22.766 0.152165C22.8265 0.177219 22.8856 0.205177 22.9433 0.236039C23.001 0.266902 23.0571 0.300519 23.1116 0.336892C23.166 0.373265 23.2185 0.412219 23.2691 0.453752C23.3198 0.495285 23.3682 0.5392 23.4145 0.585494C23.4608 0.631788 23.5047 0.68024 23.5462 0.730848C23.5877 0.781457 23.6267 0.833979 23.6631 0.888415C23.6995 0.942851 23.7331 0.99894 23.764 1.05668C23.7949 1.11442 23.8228 1.17353 23.8478 1.23402C23.8729 1.2945 23.8949 1.35607 23.9139 1.41872C23.9329 1.48137 23.9488 1.5448 23.9616 1.60901C23.9743 1.67322 23.9839 1.73791 23.9904 1.80306C23.9968 1.86822 24 1.93353 24 1.999L24 9.001C24 9.06647 23.9968 9.13179 23.9904 9.19694C23.9839 9.26209 23.9743 9.32678 23.9616 9.39099C23.9488 9.4552 23.9329 9.51863 23.9139 9.58128C23.8949 9.64393 23.8729 9.70549 23.8478 9.76598C23.8228 9.82647 23.7949 9.88558 23.764 9.94332C23.7331 10.001 23.6995 10.0571 23.6631 10.1116C23.6267 10.166 23.5877 10.2185 23.5462 10.2692C23.5047 10.3198 23.4608 10.3682 23.4145 10.4145C23.3682 10.4608 23.3198 10.5047 23.2691 10.5462C23.2185 10.5877 23.166 10.6267 23.1116 10.6631C23.0571 10.6995 23.001 10.7331 22.9433 10.764C22.8856 10.7949 22.8265 10.8228 22.766 10.8478C22.7055 10.8729 22.644 10.8949 22.5813 10.9139C22.5186 10.9329 22.4552 10.9488 22.391 10.9616C22.3268 10.9743 22.2621 10.9839 22.1969 10.9904C22.1318 10.9968 22.0665 11 22.001 11L1.999 11C1.93353 11 1.86822 10.9968 1.80306 10.9904C1.73791 10.9839 1.67322 10.9743 1.60901 10.9616C1.5448 10.9488 1.48137 10.9329 1.41872 10.9139C1.35607 10.8949 1.2945 10.8729 1.23402 10.8478C1.17353 10.8228 1.11442 10.7949 1.05668 10.764C0.998939 10.7331 0.942851 10.6995 0.888415 10.6631C0.833979 10.6267 0.781457 10.5877 0.730848 10.5462C0.680239 10.5047 0.631788 10.4608 0.585494 10.4145C0.539199 10.3682 0.495285 10.3198 0.453752 10.2692C0.412219 10.2185 0.373265 10.166 0.336892 10.1116C0.300519 10.0571 0.266902 10.001 0.236039 9.94332C0.205177 9.88558 0.177219 9.82647 0.152165 9.76598C0.127111 9.70549 0.105081 9.64393 0.0860763 9.58128C0.0670714 9.51863 0.0511828 9.45519 0.0384102 9.39098C0.0256377 9.32678 0.0160429 9.26209 0.00962567 9.19694C0.00320864 9.13179 0 9.06647 0 9.001L0 1.999C0 1.93353 0.00320864 1.86822 0.00962567 1.80306C0.0160429 1.73791 0.0256377 1.67322 0.0384102 1.60901C0.0511828 1.5448 0.0670714 1.48137 0.0860763 1.41872C0.105081 1.35607 0.127111 1.2945 0.152165 1.23402C0.177219 1.17353 0.205177 1.11442 0.236039 1.05668C0.266902 0.99894 0.300519 0.942851 0.336892 0.888415C0.373265 0.833979 0.412219 0.781457 0.453752 0.730848C0.495285 0.68024 0.539199 0.631788 0.585494 0.585494C0.631788 0.5392 0.680239 0.495285 0.730848 0.453752C0.781457 0.412219 0.833979 0.373265 0.888415 0.336892C0.942851 0.300519 0.998939 0.266902 1.05668 0.236039C1.11442 0.205177 1.17353 0.177219 1.23402 0.152165C1.2945 0.127111 1.35607 0.105082 1.41872 0.0860767C1.48137 0.067071 1.5448 0.0511827 1.60901 0.0384102C1.67322 0.0256376 1.73791 0.0160427 1.80306 0.00962543C1.86822 0.00320816 1.93353 0 1.999 0L1.999 0L1.999 0L1.999 0Z" transform="translate(0 9)" id="Rectangle" fill="#000000" fill-rule="evenodd" stroke="none" />
                  <path d="M0 0L3 3" transform="translate(2 11)" id="Line" fill="none" fill-rule="evenodd" stroke="#00FF00" stroke-width="1" stroke-linecap="square" />
                  <path d="M3 0L0 3" transform="translate(2.0000014 14)" id="Line-2" fill="none" fill-rule="evenodd" stroke="#0000FF" stroke-width="1" stroke-linecap="square" />
                  <path d="M0 1C0 0.447715 0.447715 0 1 0C1.55228 0 2 0.447715 2 1C2 1.55228 1.55228 2 1 2C0.447715 2 0 1.55228 0 1L0 1L0 1L0 1Z" transform="translate(6 6)" id="Ellipse" fill="#FF0000" fill-rule="evenodd" stroke="none" />
                  <path d="M0 1C0 0.447715 0.447715 0 1 0C1.55228 0 2 0.447715 2 1C2 1.55228 1.55228 2 1 2C0.447715 2 0 1.55228 0 1L0 1L0 1L0 1Z" transform="translate(2 6)" id="Ellipse-2" fill="#00FF00" fill-rule="evenodd" stroke="none" />
                  <path d="M0.999 0L14.001 0C14.0666 0 14.1316 0.00799847 14.1959 0.0239944C14.2602 0.0399904 14.3227 0.0636773 14.3833 0.0950551C14.4439 0.126433 14.5015 0.164899 14.556 0.210453C14.6105 0.256006 14.661 0.307772 14.7074 0.36575C14.7538 0.423729 14.7952 0.486806 14.8316 0.554981C14.8681 0.623157 14.8989 0.695121 14.924 0.770874C14.9491 0.846626 14.968 0.924712 14.9808 1.00513C14.9936 1.08555 15 1.16676 15 1.24875L15 3.75125C15 3.83324 14.9936 3.91445 14.9808 3.99486C14.968 4.07529 14.9491 4.15338 14.924 4.22913C14.8989 4.30488 14.8681 4.37684 14.8316 4.44501C14.7952 4.5132 14.7538 4.57628 14.7074 4.63425C14.661 4.69223 14.6105 4.74399 14.556 4.78955C14.5015 4.8351 14.4439 4.87357 14.3833 4.90495C14.3227 4.93633 14.2602 4.96001 14.1959 4.976C14.1316 4.992 14.0666 5 14.001 5L0.999 5C0.933405 5 0.86844 4.992 0.804105 4.976C0.73977 4.96001 0.677301 4.93633 0.616699 4.90495C0.556097 4.87357 0.498526 4.8351 0.443985 4.78955C0.389445 4.74399 0.338984 4.69223 0.2926 4.63425C0.246218 4.57628 0.204804 4.5132 0.168362 4.44501C0.131919 4.37684 0.101147 4.30488 0.0760441 4.22913C0.0509424 4.15338 0.0319929 4.07529 0.0191956 3.99486C0.0063982 3.91445 0 3.83324 0 3.75125L0 1.24875C0 1.16676 0.0063982 1.08555 0.0191956 1.00513C0.0319929 0.924712 0.0509424 0.846626 0.0760441 0.770874C0.101147 0.695121 0.131919 0.623157 0.168362 0.554981C0.204804 0.486806 0.246218 0.423729 0.2926 0.36575C0.338984 0.307772 0.389445 0.256006 0.443985 0.210453C0.498526 0.164899 0.556097 0.126433 0.616699 0.0950551C0.677301 0.0636773 0.73977 0.0399904 0.804105 0.0239944C0.86844 0.00799847 0.933405 0 0.999 0L0.999 0L0.999 0L0.999 0Z" transform="translate(9 6)" id="Rectangle-2#1" fill="#000000" fill-rule="evenodd" stroke="none" />
                </g>
              </g>
              <g id="T" transform="translate(8.058 11.27788)">
                <path d="M0 0L3.834 0L3.834 0.54L2.187 0.54L2.187 4.932L1.638 4.932L1.638 0.54L0 0.54L0 0L0 0L0 0Z" id="Shape" fill="#00FF00" fill-rule="evenodd" stroke="none" />
              </g>
              <g id="A" transform="translate(14.084999 11.27788)">
                <path d="M0.531 3.285L0.531 4.932L0 4.932L0 1.89C0 1.824 0.0269995 1.764 0.0810003 1.71L1.701 0.0810003C1.749 0.0270004 1.809 0 1.881 0C1.965 0 2.034 0.0270004 2.088 0.0810003L3.735 1.719C3.783 1.767 3.807 1.83 3.807 1.908L3.807 4.932L3.267 4.932L3.267 3.285L0.531 3.285L0.531 3.285L0.531 3.285ZM0.54 2.736L3.267 2.736L3.267 2.016L1.89 0.648001L0.54 2.007L0.54 2.736L0.54 2.736L0.54 2.736Z" id="Shape#1" fill="#0000FF" fill-rule="evenodd" stroke="none" />
              </g>
            </g>
          </g>
        </g>
      </g>
    </g>
  </g>
  <g id="TOMI-ADENEKAN" fill="#F5FFFF" transform="translate(30.5 3)">
    <path d="M23.895 13.308Q24.372 12.093 24.372 10.491Q24.372 8.889 23.886 7.674Q23.4 6.459 22.554 5.631Q21.708 4.803 20.574 4.389Q19.44 3.975 18.162 3.975Q16.92 3.975 15.795 4.389Q14.67 4.803 13.815 5.631Q12.96 6.459 12.456 7.674Q11.952 8.889 11.952 10.491Q11.952 12.093 12.438 13.308Q12.924 14.523 13.77 15.342Q14.616 16.161 15.75 16.575Q16.884 16.989 18.162 16.989Q19.476 16.989 20.619 16.575Q21.762 16.161 22.59 15.342Q23.418 14.523 23.895 13.308ZM76.266 13.317Q76.77 12.111 76.77 10.491Q76.77 8.799 76.266 7.593Q75.762 6.387 74.826 5.613Q73.89 4.839 72.585 4.479Q71.28 4.119 69.678 4.119Q68.922 4.119 67.869 4.182Q66.816 4.245 65.844 4.425L65.844 16.575Q66.816 16.773 67.824 16.836Q68.832 16.899 69.588 16.899Q71.244 16.899 72.576 16.503Q73.908 16.107 74.835 15.315Q75.762 14.523 76.266 13.317ZM10.692 6.657L10.692 4.263L0.36 4.263L0.36 6.657L4.122 6.657L4.122 16.737L6.93 16.737L6.93 6.657L10.692 6.657ZM30.024 4.263Q30.3488 4.857 30.773 5.73Q31.1971 6.603 31.6574 7.62Q32.1176 8.637 32.5687 9.699Q33.0199 10.761 33.417 11.697Q33.8141 10.761 34.2653 9.699Q34.7164 8.637 35.1766 7.62Q35.6369 6.603 36.061 5.73Q36.4852 4.857 36.81 4.263L39.366 4.263Q39.546 5.505 39.699 7.044Q39.852 8.583 39.969 10.248Q40.086 11.913 40.185 13.587Q40.284 15.261 40.356 16.737L37.62 16.737Q37.566 14.919 37.476 12.777Q37.386 10.635 37.206 8.457Q36.8809 9.213 36.4837 10.131Q36.0866 11.049 35.6984 11.967Q35.3101 12.885 34.949 13.722Q34.5878 14.559 34.335 15.153L32.373 15.153Q32.1202 14.559 31.759 13.722Q31.3979 12.885 31.0096 11.967Q30.6214 11.049 30.2243 10.131Q29.8271 9.213 29.502 8.457Q29.322 10.635 29.232 12.777Q29.142 14.919 29.088 16.737L26.352 16.737Q26.424 15.261 26.523 13.587Q26.622 11.913 26.739 10.248Q26.856 8.583 27.009 7.044Q27.162 5.505 27.342 4.263L30.024 4.263ZM45.666 4.263L42.858 4.263L42.858 16.737L45.666 16.737L45.666 4.263ZM61.2346 16.737Q61.0265 16.0868 60.7868 15.4015Q60.5472 14.7162 60.3096 14.037L55.4377 14.037Q55.2015 14.7193 54.9641 15.4053Q54.7267 16.0912 54.522 16.737L51.606 16.737Q52.3102 14.721 52.9421 13.011Q53.5739 11.301 54.1787 9.789Q54.7836 8.277 55.3704 6.918Q55.9572 5.559 56.5892 4.263L59.2509 4.263Q59.8657 5.559 60.4626 6.918Q61.0594 8.277 61.6652 9.789Q62.271 11.301 62.9038 13.011Q63.5366 14.721 64.242 16.737L61.2346 16.737ZM79.11 16.737L79.11 4.263L87.534 4.263L87.534 6.621L81.918 6.621L81.918 9.069L86.904 9.069L86.904 11.373L81.918 11.373L81.918 14.379L87.948 14.379L87.948 16.737L79.11 16.737ZM95.778 12.507Q97.182 14.595 98.388 16.737L100.746 16.737L100.746 4.263L97.956 4.263L97.956 11.625Q97.308 10.653 96.57 9.6Q95.832 8.547 95.085 7.566Q94.338 6.585 93.618 5.721Q92.898 4.857 92.304 4.263L90.018 4.263L90.018 16.737L92.79 16.737L92.79 8.565Q94.374 10.419 95.778 12.507ZM103.626 16.737L103.626 4.263L112.05 4.263L112.05 6.621L106.434 6.621L106.434 9.069L111.42 9.069L111.42 11.373L106.434 11.373L106.434 14.379L112.464 14.379L112.464 16.737L103.626 16.737ZM120.994 15.4209Q121.508 16.1281 121.888 16.737L125.226 16.737Q123.942 14.6718 122.552 12.9581Q121.161 11.2445 119.664 9.996Q121.088 8.5785 122.376 7.179Q123.665 5.7795 124.938 4.263L121.606 4.263Q120.66 5.33006 119.542 6.57178Q118.425 7.8135 117.342 8.95116L117.342 4.263L114.534 4.263L114.534 16.737L117.342 16.737L117.342 11.4537Q117.991 11.9591 118.641 12.6181Q119.29 13.2771 119.885 13.9954Q120.479 14.7137 120.994 15.4209ZM135.215 16.737Q135.006 16.0868 134.767 15.4015Q134.527 14.7162 134.29 14.037L129.418 14.037Q129.181 14.7193 128.944 15.4053Q128.707 16.0912 128.502 16.737L125.586 16.737Q126.29 14.721 126.922 13.011Q127.554 11.301 128.159 9.789Q128.764 8.277 129.35 6.918Q129.937 5.559 130.569 4.263L133.231 4.263Q133.846 5.559 134.443 6.918Q135.039 8.277 135.645 9.789Q136.251 11.301 136.884 13.011Q137.517 14.721 138.222 16.737L135.215 16.737ZM145.584 12.507Q146.988 14.595 148.194 16.737L150.552 16.737L150.552 4.263L147.762 4.263L147.762 11.625Q147.114 10.653 146.376 9.6Q145.638 8.547 144.891 7.566Q144.144 6.585 143.424 5.721Q142.704 4.857 142.11 4.263L139.824 4.263L139.824 16.737L142.596 16.737L142.596 8.565Q144.18 10.419 145.584 12.507ZM15.075 12.147Q14.85 11.409 14.85 10.491Q14.85 9.591 15.075 8.844Q15.3 8.097 15.723 7.566Q16.146 7.035 16.758 6.738Q17.37 6.441 18.162 6.441Q18.936 6.441 19.557 6.729Q20.178 7.017 20.601 7.548Q21.024 8.079 21.249 8.826Q21.474 9.573 21.474 10.491Q21.474 11.409 21.249 12.147Q21.024 12.885 20.601 13.416Q20.178 13.947 19.557 14.235Q18.936 14.523 18.162 14.523Q17.37 14.523 16.758 14.235Q16.146 13.947 15.723 13.416Q15.3 12.885 15.075 12.147ZM69.111 14.478Q68.85 14.469 68.652 14.451L68.652 6.567Q68.922 6.531 69.228 6.522Q69.534 6.513 69.822 6.513Q71.928 6.513 72.9 7.521Q73.872 8.529 73.872 10.491Q73.872 12.363 72.855 13.425Q71.838 14.487 69.732 14.487Q69.372 14.487 69.111 14.478ZM57.861 7.089Q57.7671 7.36069 57.5861 7.82841Q57.4051 8.29612 57.1739 8.90911Q56.9427 9.52209 56.6571 10.2591Q56.3715 10.9961 56.0765 11.805L59.6436 11.805Q59.3572 10.9936 59.0889 10.2543Q58.8206 9.51506 58.579 8.90194Q58.3374 8.28881 58.1552 7.82166Q57.9729 7.3545 57.861 7.089ZM131.841 7.089Q131.747 7.36069 131.566 7.82841Q131.385 8.29612 131.154 8.90911Q130.923 9.52209 130.637 10.2591Q130.351 10.9961 130.056 11.805L133.624 11.805Q133.337 10.9936 133.069 10.2543Q132.801 9.51506 132.559 8.90194Q132.317 8.28881 132.135 7.82166Q131.953 7.3545 131.841 7.089Z" />
  </g>
</svg>