<?xml version="1.0" encoding="utf-8"?>
<svg width="26px" height="26px" viewbox="0 0 26 26" version="1.1" xmlns:xlink="http://www.w3.org/1999/xlink" xmlns="http://www.w3.org/2000/svg">
  <defs>
    <path d="M0 0L25 0L25 25L0 25L0 0Z" id="path_1" />
    <clipPath id="mask_1">
      <use xlink:href="#path_1" />
    </clipPath>
  </defs>
  <g id="My-Logo" transform="translate(0.5 0.5)" opacity="0.9">
    <path d="M0 0L25 0L25 25L0 25L0 0Z" id="Background" fill="none" fill-rule="evenodd" stroke="none" />
    <g clip-path="url(#mask_1)">
      <g id="Mask-group" transform="translate(0.5 0.5)">
        <g id="Icon">
          <path d="M0 0L24 0L24 24L0 24L0 0L0 0Z" id="artboard_1" fill="#FFFFFF" fill-opacity="0" fill-rule="evenodd" stroke="none" />
          <path d="M1.999 0L22.001 0C22.0665 0 22.1318 0.00320816 22.1969 0.00962543C22.2621 0.0160427 22.3268 0.0256376 22.391 0.0384102C22.4552 0.0511827 22.5186 0.067071 22.5813 0.0860767C22.644 0.105082 22.7055 0.127111 22.766 0.152165C22.8265 0.177219 22.8856 0.205177 22.9433 0.236039C23.001 0.266902 23.0571 0.300519 23.1116 0.336892C23.166 0.373265 23.2185 0.412219 23.2691 0.453752C23.3198 0.495285 23.3682 0.5392 23.4145 0.585494C23.4608 0.631788 23.5047 0.68024 23.5462 0.730848C23.5877 0.781457 23.6267 0.833979 23.6631 0.888415C23.6995 0.942851 23.7331 0.99894 23.764 1.05668C23.7949 1.11442 23.8228 1.17353 23.8478 1.23402C23.8729 1.2945 23.8949 1.35607 23.9139 1.41872C23.9329 1.48137 23.9488 1.5448 23.9616 1.60901C23.9743 1.67322 23.9839 1.73791 23.9904 1.80306C23.9968 1.86822 24 1.93353 24 1.999L24 9.001C24 9.06647 23.9968 9.13179 23.9904 9.19694C23.9839 9.26209 23.9743 9.32678 23.9616 9.39099C23.9488 9.4552 23.9329 9.51863 23.9139 9.58128C23.8949 9.64393 23.8729 9.70549 23.8478 9.76598C23.8228 9.82647 23.7949 9.88558 23.764 9.94332C23.7331 10.001 23.6995 10.0571 23.6631 10.1116C23.6267 10.166 23.5877 10.2185 23.5462 10.2692C23.5047 10.3198 23.4608 10.3682 23.4145 10.4145C23.3682 10.4608 23.3198 10.5047 23.2691 10.5462C23.2185 10.5877 23.166 10.6267 23.1116 10.6631C23.0571 10.6995 23.001 10.7331 22.9433 10.764C22.8856 10.7949 22.8265 10.8228 22.766 10.8478C22.7055 10.8729 22.644 10.8949 22.5813 10.9139C22.5186 10.9329 22.4552 10.9488 22.391 10.9616C22.3268 10.9743 22.2621 10.9839 22.1969 10.9904C22.1318 10.9968 22.0665 11 22.001 11L1.999 11C1.93353 11 1.86822 10.9968 1.80306 10.9904C1.73791 10.9839 1.67322 10.9743 1.60901 10.9616C1.5448 10.9488 1.48137 10.9329 1.41872 10.9139C1.35607 10.8949 1.2945 10.8729 1.23402 10.8478C1.17353 10.8228 1.11442 10.7949 1.05668 10.764C0.998939 10.7331 0.942851 10.6995 0.888415 10.6631C0.833979 10.6267 0.781457 10.5877 0.730848 10.5462C0.680239 10.5047 0.631788 10.4608 0.585494 10.4145C0.539199 10.3682 0.495285 10.3198 0.453752 10.2692C0.412219 10.2185 0.373265 10.166 0.336892 10.1116C0.300519 10.0571 0.266902 10.001 0.236039 9.94332C0.205177 9.88558 0.177219 9.82647 0.152165 9.76598C0.127111 9.70549 0.105081 9.64393 0.0860763 9.58128C0.0670714 9.51863 0.0511827 9.45519 0.0384102 9.39098C0.0256377 9.32678 0.0160429 9.26209 0.00962573 9.19694C0.00320858 9.13179 0 9.06647 0 9.001L0 1.999C0 1.93353 0.00320858 1.86822 0.00962573 1.80306C0.0160429 1.73791 0.0256377 1.67322 0.0384102 1.60901C0.0511827 1.5448 0.0670714 1.48137 0.0860763 1.41872C0.105081 1.35607 0.127111 1.2945 0.152165 1.23402C0.177219 1.17353 0.205177 1.11442 0.236039 1.05668C0.266902 0.99894 0.300519 0.942851 0.336892 0.888415C0.373265 0.833979 0.412219 0.781457 0.453752 0.730848C0.495285 0.68024 0.539199 0.631788 0.585494 0.585494C0.631788 0.5392 0.680239 0.495285 0.730848 0.453752C0.781457 0.412219 0.833979 0.373265 0.888415 0.336892C0.942851 0.300519 0.998939 0.266902 1.05668 0.236039C1.11442 0.205177 1.17353 0.177219 1.23402 0.152165C1.2945 0.127111 1.35607 0.105082 1.41872 0.0860767C1.48137 0.067071 1.5448 0.0511827 1.60901 0.0384102C1.67322 0.0256376 1.73791 0.0160427 1.80306 0.00962543C1.86822 0.00320816 1.93353 0 1.999 0L1.999 0L1.999 0Z" transform="translate(0 9)" id="Rectangle" fill="#000000" fill-rule="evenodd" stroke="none" />
          <path d="M0 0L3 3" transform="translate(2 11)" id="Line" fill="none" fill-rule="evenodd" stroke="#00FF00" stroke-width="1" stroke-linecap="square" />
          <path d="M3 0L0 3" transform="translate(2.0000014 14)" id="Line-2" fill="none" fill-rule="evenodd" stroke="#0000FF" stroke-width="1" stroke-linecap="square" />
          <path d="M0 1C0 0.447715 0.447715 0 1 0C1.55228 0 2 0.447715 2 1C2 1.55228 1.55228 2 1 2C0.447715 2 0 1.55228 0 1L0 1L0 1Z" transform="translate(6 6)" id="Ellipse" fill="#FF0000" fill-rule="evenodd" stroke="none" />
          <path d="M0 1C0 0.447715 0.447715 0 1 0C1.55228 0 2 0.447715 2 1C2 1.55228 1.55228 2 1 2C0.447715 2 0 1.55228 0 1L0 1L0 1Z" transform="translate(2 6)" id="Ellipse-2" fill="#00FF00" fill-rule="evenodd" stroke="none" />
          <path d="M0.999 0L14.001 0C14.0666 0 14.1316 0.00799847 14.1959 0.0239944C14.2602 0.0399904 14.3227 0.0636773 14.3833 0.0950551C14.4439 0.126433 14.5015 0.164899 14.556 0.210453C14.6105 0.256006 14.661 0.307772 14.7074 0.36575C14.7538 0.423729 14.7952 0.486806 14.8316 0.554981C14.8681 0.623157 14.8989 0.695121 14.924 0.770874C14.9491 0.846626 14.968 0.924712 14.9808 1.00513C14.9936 1.08555 15 1.16676 15 1.24875L15 3.75125C15 3.83324 14.9936 3.91445 14.9808 3.99486C14.968 4.07529 14.9491 4.15338 14.924 4.22913C14.8989 4.30488 14.8681 4.37684 14.8316 4.44501C14.7952 4.5132 14.7538 4.57628 14.7074 4.63425C14.661 4.69223 14.6105 4.74399 14.556 4.78955C14.5015 4.8351 14.4439 4.87357 14.3833 4.90495C14.3227 4.93633 14.2602 4.96001 14.1959 4.976C14.1316 4.992 14.0666 5 14.001 5L0.999 5C0.933405 5 0.86844 4.992 0.804105 4.976C0.73977 4.96001 0.677301 4.93633 0.616699 4.90495C0.556097 4.87357 0.498526 4.8351 0.443985 4.78955C0.389445 4.74399 0.338984 4.69223 0.2926 4.63425C0.246218 4.57628 0.204804 4.5132 0.168362 4.44501C0.131919 4.37684 0.101147 4.30488 0.0760441 4.22913C0.0509424 4.15338 0.0319929 4.07529 0.0191956 3.99486C0.0063982 3.91445 0 3.83324 0 3.75125L0 1.24875C0 1.16676 0.0063982 1.08555 0.0191956 1.00513C0.0319929 0.924712 0.0509424 0.846626 0.0760441 0.770874C0.101147 0.695121 0.131919 0.623157 0.168362 0.554981C0.204804 0.486806 0.246218 0.423729 0.2926 0.36575C0.338984 0.307772 0.389445 0.256006 0.443985 0.210453C0.498526 0.164899 0.556097 0.126433 0.616699 0.0950551C0.677301 0.0636773 0.73977 0.0399904 0.804105 0.0239944C0.86844 0.00799847 0.933405 0 0.999 0L0.999 0L0.999 0Z" transform="translate(9 6)" id="Rectangle-2#1" fill="#000000" fill-rule="evenodd" stroke="none" />
        </g>
      </g>
      <g id="T" transform="translate(8.558 11.77788)">
        <path d="M0 0L3.834 0L3.834 0.54L2.187 0.54L2.187 4.932L1.638 4.932L1.638 0.54L0 0.54L0 0L0 0Z" id="Shape" fill="#00FF00" fill-rule="evenodd" stroke="none" />
      </g>
      <g id="A" transform="translate(14.584999 11.77788)">
        <path d="M0.531 3.285L0.531 4.932L0 4.932L0 1.89C0 1.824 0.0269995 1.764 0.0810003 1.71L1.701 0.0810003C1.749 0.0270004 1.809 0 1.881 0C1.965 0 2.034 0.0270004 2.088 0.0810003L3.735 1.719C3.783 1.767 3.807 1.83 3.807 1.908L3.807 4.932L3.267 4.932L3.267 3.285L0.531 3.285L0.531 3.285ZM0.54 2.736L3.267 2.736L3.267 2.016L1.89 0.648001L0.54 2.007L0.54 2.736L0.54 2.736Z" id="Shape" fill="#0000FF" fill-rule="evenodd" stroke="none" />
      </g>
    </g>
  </g>
</svg>