<?xml version="1.0" encoding="utf-8"?>
<svg width="24px" height="24px" viewbox="0 0 24 24" version="1.1" xmlns:xlink="http://www.w3.org/1999/xlink" xmlns="http://www.w3.org/2000/svg">
  <defs>
    <linearGradient x1="0" y1="0" x2="1" y2="1" id="gradient_1">
      <stop offset="0.27155173" stop-color="#90EE90" />
      <stop offset="1" stop-color="#0000FF" />
    </linearGradient>
    <rect width="24" height="24" id="artboard_1" />
    <clipPath id="clip_1">
      <use xlink:href="#artboard_1" clip-rule="evenodd" />
    </clipPath>
  </defs>
  <g id="Icon" clip-path="url(#clip_1)">
    <path d="M0 0L21.3333 0L21.3333 2.66667L0 2.66667L0 0Z" transform="translate(1.333333 10.999968)" id="Rectangle" fill="url(#gradient_1)" fill-rule="evenodd" stroke="none" />
    <path d="M1.33233 0L1.33433 0Q1.39979 0 1.46492 0.00641555Q1.53006 0.0128311 1.59426 0.0256004Q1.65845 0.0383697 1.72109 0.0573698Q1.78372 0.0763699 1.8442 0.101418Q1.90467 0.126466 1.96239 0.15732Q2.02012 0.188175 2.07454 0.224539Q2.12896 0.260903 2.17956 0.302426Q2.23015 0.343949 2.27644 0.390231Q2.32272 0.436514 2.36424 0.48711Q2.40576 0.537706 2.44213 0.592129Q2.47849 0.646551 2.50935 0.704276Q2.5402 0.762 2.56525 0.822471Q2.5903 0.882942 2.6093 0.945577Q2.6283 1.00821 2.64107 1.07241Q2.65384 1.1366 2.66025 1.20174Q2.66667 1.26688 2.66667 1.33233L2.66667 4.001Q2.66667 4.06645 2.66025 4.13159Q2.65384 4.19673 2.64107 4.26093Q2.6283 4.32512 2.6093 4.38776Q2.5903 4.45039 2.56525 4.51086Q2.5402 4.57133 2.50935 4.62906Q2.47849 4.68678 2.44213 4.7412Q2.40576 4.79563 2.36424 4.84622Q2.32272 4.89682 2.27644 4.9431Q2.23015 4.98938 2.17956 5.03091Q2.12896 5.07243 2.07454 5.10879Q2.02012 5.14516 1.96239 5.17601Q1.90467 5.20687 1.8442 5.23191Q1.78372 5.25696 1.72109 5.27596Q1.65845 5.29496 1.59426 5.30773Q1.53006 5.3205 1.46492 5.32692Q1.39979 5.33333 1.33433 5.33333L1.33233 5.33333Q1.26688 5.33333 1.20174 5.32692Q1.1366 5.3205 1.07241 5.30773Q1.00821 5.29496 0.945577 5.27596Q0.882942 5.25696 0.822471 5.23191Q0.762 5.20687 0.704276 5.17601Q0.646551 5.14516 0.592129 5.10879Q0.537706 5.07243 0.48711 5.03091Q0.436514 4.98938 0.390231 4.9431Q0.343949 4.89682 0.302426 4.84622Q0.260903 4.79563 0.224539 4.7412Q0.188175 4.68678 0.15732 4.62906Q0.126466 4.57133 0.101418 4.51086Q0.0763699 4.45039 0.0573698 4.38776Q0.0383697 4.32512 0.0256004 4.26092Q0.0128311 4.19673 0.00641555 4.13159Q0 4.06645 0 4.001L0 1.33233Q0 1.26688 0.00641555 1.20174Q0.0128311 1.1366 0.0256004 1.07241Q0.0383697 1.00821 0.0573698 0.945577Q0.0763699 0.882942 0.101418 0.822471Q0.126466 0.762 0.15732 0.704276Q0.188175 0.646551 0.224539 0.592129Q0.260903 0.537706 0.302426 0.48711Q0.343949 0.436514 0.390231 0.390231Q0.436514 0.343949 0.48711 0.302426Q0.537706 0.260903 0.592129 0.224539Q0.646551 0.188175 0.704276 0.15732Q0.762 0.126466 0.822471 0.101418Q0.882942 0.0763699 0.945577 0.0573698Q1.00821 0.0383697 1.07241 0.0256004Q1.1366 0.0128311 1.20174 0.00641555Q1.26688 0 1.33233 0Z" transform="translate(0 9.666634)" id="Rectangle-4" fill="url(#gradient_1)" fill-rule="evenodd" stroke="none" />
    <path d="M3.33233 0L3.33433 0Q3.49804 0 3.66096 0.0160461Q3.82388 0.0320922 3.98444 0.0640298Q4.145 0.0959675 4.30166 0.143489Q4.45832 0.191011 4.60956 0.253659Q4.76081 0.316307 4.90518 0.393478Q5.04956 0.470649 5.18568 0.561599Q5.3218 0.65255 5.44834 0.756405Q5.57489 0.860259 5.69065 0.976018Q5.80641 1.09178 5.91026 1.21832Q6.01412 1.34487 6.10507 1.48099Q6.19602 1.61711 6.27319 1.76148Q6.35036 1.90586 6.41301 2.0571Q6.47566 2.20835 6.52318 2.36501Q6.5707 2.52167 6.60264 2.68223Q6.63457 2.84279 6.65062 3.00571Q6.66667 3.16863 6.66667 3.33233L6.66667 10.001Q6.66667 10.1647 6.65062 10.3276Q6.63457 10.4905 6.60264 10.6511Q6.5707 10.8117 6.52318 10.9683Q6.47565 11.125 6.41301 11.2762Q6.35036 11.4275 6.27319 11.5718Q6.19602 11.7162 6.10507 11.8523Q6.01412 11.9885 5.91026 12.115Q5.80641 12.2416 5.69065 12.3573Q5.57489 12.4731 5.44834 12.5769Q5.32179 12.6808 5.18568 12.7717Q5.04956 12.8627 4.90518 12.9399Q4.76081 13.017 4.60956 13.0797Q4.45832 13.1423 4.30166 13.1898Q4.145 13.2374 3.98444 13.2693Q3.82388 13.3012 3.66096 13.3173Q3.49804 13.3333 3.33433 13.3333L3.33233 13.3333Q3.16863 13.3333 3.00571 13.3173Q2.84279 13.3012 2.68223 13.2693Q2.52167 13.2374 2.36501 13.1898Q2.20835 13.1423 2.0571 13.0797Q1.90586 13.017 1.76148 12.9399Q1.61711 12.8627 1.48099 12.7717Q1.34487 12.6808 1.21832 12.5769Q1.09178 12.4731 0.976018 12.3573Q0.860259 12.2416 0.756405 12.115Q0.65255 11.9885 0.561599 11.8523Q0.470649 11.7162 0.393478 11.5718Q0.316307 11.4275 0.253659 11.2762Q0.191011 11.125 0.143489 10.9683Q0.0959675 10.8117 0.0640298 10.6511Q0.0320922 10.4905 0.0160461 10.3276Q0 10.1647 0 10.001L0 3.33233Q0 3.16863 0.0160461 3.00571Q0.0320922 2.84279 0.0640298 2.68223Q0.0959675 2.52167 0.143489 2.36501Q0.191011 2.20835 0.253659 2.0571Q0.316307 1.90586 0.393478 1.76148Q0.470649 1.61711 0.561599 1.48099Q0.65255 1.34487 0.756405 1.21832Q0.860259 1.09178 0.976018 0.976018Q1.09178 0.860259 1.21832 0.756405Q1.34487 0.65255 1.48099 0.561599Q1.61711 0.470649 1.76148 0.393478Q1.90586 0.316307 2.0571 0.253659Q2.20835 0.191011 2.36501 0.143489Q2.52167 0.0959675 2.68223 0.0640298Q2.84279 0.0320922 3.00571 0.0160461Q3.16863 0 3.33233 0Z" transform="translate(1.333333 5.666634)" id="Rectangle-2" fill="url(#gradient_1)" fill-rule="evenodd" stroke="none" />
    <path d="M1.33233 0L1.33433 0Q1.39979 0 1.46492 0.00641555Q1.53006 0.0128311 1.59426 0.0256004Q1.65845 0.0383697 1.72109 0.0573698Q1.78372 0.0763699 1.8442 0.101418Q1.90467 0.126466 1.96239 0.15732Q2.02012 0.188175 2.07454 0.224539Q2.12896 0.260903 2.17956 0.302426Q2.23015 0.343949 2.27644 0.390231Q2.32272 0.436514 2.36424 0.48711Q2.40576 0.537706 2.44213 0.592129Q2.47849 0.646551 2.50935 0.704276Q2.5402 0.762 2.56525 0.822471Q2.5903 0.882942 2.6093 0.945577Q2.6283 1.00821 2.64107 1.07241Q2.65384 1.1366 2.66025 1.20174Q2.66667 1.26688 2.66667 1.33233L2.66667 4.001Q2.66667 4.06645 2.66025 4.13159Q2.65384 4.19673 2.64107 4.26093Q2.6283 4.32512 2.6093 4.38776Q2.5903 4.45039 2.56525 4.51086Q2.5402 4.57133 2.50935 4.62906Q2.47849 4.68678 2.44213 4.7412Q2.40576 4.79563 2.36424 4.84622Q2.32272 4.89682 2.27644 4.9431Q2.23015 4.98938 2.17956 5.03091Q2.12896 5.07243 2.07454 5.10879Q2.02012 5.14516 1.96239 5.17601Q1.90467 5.20687 1.8442 5.23191Q1.78372 5.25696 1.72109 5.27596Q1.65845 5.29496 1.59426 5.30773Q1.53006 5.3205 1.46492 5.32692Q1.39979 5.33333 1.33433 5.33333L1.33233 5.33333Q1.26688 5.33333 1.20174 5.32692Q1.1366 5.3205 1.07241 5.30773Q1.00821 5.29496 0.945577 5.27596Q0.882942 5.25696 0.822471 5.23191Q0.762 5.20687 0.704276 5.17601Q0.646551 5.14516 0.592129 5.10879Q0.537706 5.07243 0.48711 5.03091Q0.436514 4.98938 0.390231 4.9431Q0.343949 4.89682 0.302426 4.84622Q0.260903 4.79563 0.224539 4.7412Q0.188175 4.68678 0.15732 4.62906Q0.126466 4.57133 0.101418 4.51086Q0.0763699 4.45039 0.0573698 4.38776Q0.0383697 4.32512 0.0256004 4.26092Q0.0128311 4.19673 0.00641555 4.13159Q0 4.06645 0 4.001L0 1.33233Q0 1.26688 0.00641555 1.20174Q0.0128311 1.1366 0.0256004 1.07241Q0.0383697 1.00821 0.0573698 0.945577Q0.0763699 0.882942 0.101418 0.822471Q0.126466 0.762 0.15732 0.704276Q0.188175 0.646551 0.224539 0.592129Q0.260903 0.537706 0.302426 0.48711Q0.343949 0.436514 0.390231 0.390231Q0.436514 0.343949 0.48711 0.302426Q0.537706 0.260903 0.592129 0.224539Q0.646551 0.188175 0.704276 0.15732Q0.762 0.126466 0.822471 0.101418Q0.882942 0.0763699 0.945577 0.0573698Q1.00821 0.0383697 1.07241 0.0256004Q1.1366 0.0128311 1.20174 0.00641555Q1.26688 0 1.33233 0Z" transform="translate(21.333334 9.666634)" id="Rectangle-5" fill="url(#gradient_1)" fill-rule="evenodd" stroke="none" />
    <path d="M3.33233 0L3.33433 0Q3.49804 0 3.66096 0.0160461Q3.82388 0.0320922 3.98444 0.0640298Q4.145 0.0959675 4.30166 0.143489Q4.45832 0.191011 4.60956 0.253659Q4.76081 0.316307 4.90518 0.393478Q5.04956 0.470649 5.18568 0.561599Q5.3218 0.65255 5.44834 0.756405Q5.57489 0.860259 5.69065 0.976018Q5.80641 1.09178 5.91026 1.21832Q6.01412 1.34487 6.10507 1.48099Q6.19602 1.61711 6.27319 1.76148Q6.35036 1.90586 6.41301 2.0571Q6.47566 2.20835 6.52318 2.36501Q6.5707 2.52167 6.60264 2.68223Q6.63457 2.84279 6.65062 3.00571Q6.66667 3.16863 6.66667 3.33233L6.66667 10.001Q6.66667 10.1647 6.65062 10.3276Q6.63457 10.4905 6.60264 10.6511Q6.5707 10.8117 6.52318 10.9683Q6.47565 11.125 6.41301 11.2762Q6.35036 11.4275 6.27319 11.5718Q6.19602 11.7162 6.10507 11.8523Q6.01412 11.9885 5.91026 12.115Q5.80641 12.2416 5.69065 12.3573Q5.57489 12.4731 5.44834 12.5769Q5.32179 12.6808 5.18568 12.7717Q5.04956 12.8627 4.90518 12.9399Q4.76081 13.017 4.60956 13.0797Q4.45832 13.1423 4.30166 13.1898Q4.145 13.2374 3.98444 13.2693Q3.82388 13.3012 3.66096 13.3173Q3.49804 13.3333 3.33433 13.3333L3.33233 13.3333Q3.16863 13.3333 3.00571 13.3173Q2.84279 13.3012 2.68223 13.2693Q2.52167 13.2374 2.36501 13.1898Q2.20835 13.1423 2.0571 13.0797Q1.90586 13.017 1.76148 12.9399Q1.61711 12.8627 1.48099 12.7717Q1.34487 12.6808 1.21832 12.5769Q1.09178 12.4731 0.976018 12.3573Q0.860259 12.2416 0.756405 12.115Q0.65255 11.9885 0.561599 11.8523Q0.470649 11.7162 0.393478 11.5718Q0.316307 11.4275 0.253659 11.2762Q0.191011 11.125 0.143489 10.9683Q0.0959675 10.8117 0.0640298 10.6511Q0.0320922 10.4905 0.0160461 10.3276Q0 10.1647 0 10.001L0 3.33233Q0 3.16863 0.0160461 3.00571Q0.0320922 2.84279 0.0640298 2.68223Q0.0959675 2.52167 0.143489 2.36501Q0.191011 2.20835 0.253659 2.0571Q0.316307 1.90586 0.393478 1.76148Q0.470649 1.61711 0.561599 1.48099Q0.65255 1.34487 0.756405 1.21832Q0.860259 1.09178 0.976018 0.976018Q1.09178 0.860259 1.21832 0.756405Q1.34487 0.65255 1.48099 0.561599Q1.61711 0.470649 1.76148 0.393478Q1.90586 0.316307 2.0571 0.253659Q2.20835 0.191011 2.36501 0.143489Q2.52167 0.0959675 2.68223 0.0640298Q2.84279 0.0320922 3.00571 0.0160461Q3.16863 0 3.33233 0Z" transform="translate(15.999999 5.666634)" id="Rectangle-3" fill="url(#gradient_1)" fill-rule="evenodd" stroke="none" />
  </g>
</svg>